<?xml version="1.0" encoding="utf-8"?>
<!-- Generator: Adobe Illustrator 18.1.0, SVG Export Plug-In . SVG Version: 6.00 Build 0)  -->
<svg version="1.1" id="Livello_1" xmlns="http://www.w3.org/2000/svg" xmlns:xlink="http://www.w3.org/1999/xlink" x="0px" y="0px"
	 viewBox="0 0 595.3 315.3" enable-background="new 0 0 595.3 315.3" xml:space="preserve">
<g id="Griglia" display="none">
</g>
<g id="Sfondo">
</g>
<g id="Slider2">
</g>
<g id="Slider1" display="none">
</g>
<g id="Slider">
</g>
<g id="Menu">
	<g>
		<g>
			<g>
				<g>
					<path fill="#FFFFFF" d="M380.5,0c2.4,0,4.8,0.8,6.4,2.4c3.2,2.4,6.4,3.2,9.7,4.8c-0.8,0.8-0.8,2.4,0.8,2.4
						c-0.8,1.6-1.6,2.4-2.4,4c0.8,0,1.6,0,1.6,0c0-0.8,0-1.6,0-2.4c0.8,0,2.4,0.8,3.2,0.8c0,0-0.8,0.8-1.6,1.6c0,0,0.8,0.8,1.6,1.6
						c0,0.8-0.8,1.6-1.6,1.6c0.8,0.8,1.6,0.8,2.4,1.6c1.6,0.8,1.6,1.6,2.4,2.4c0,0-0.8,0.8-0.8,1.6c0,0.8,0.8,1.6,1.6,2.4
						c-0.8,0-1.6-0.8-1.6-1.6c0,0.8,0,1.6,0,2.4c0.8,0,1.6-0.8,2.4-0.8c-0.8,1.6-1.6,2.4-3.2,4c0.8,0,1.6,0,1.6,0
						c-1.6,1.6-3.2,3.2-4,5.6c2.4,0,2.4-2.4,4-4c-0.8,2.4-0.8,4.8-0.8,7.2c0,0.8,0,1.6,0,2.4c-0.8,0-1.6,0.8-2.4,0.8
						c0,2.4-0.8,4-1.6,6.4c1.6,0,2.4,0.8,4,0.8c-0.8,0-1.6,0.8-1.6,0.8c0,0.8,0,1.6,0,2.4c-1.6-1.6-2.4-3.2-4-4
						c-0.8,2.4,1.6,4,3.2,4c-0.8,0.8-1.6,0.8-2.4,1.6c0,0.8,0,1.6,0,2.4c-1.6,1.6-2.4,3.2-4,4c0.8,0,1.6-0.8,2.4-0.8
						s1.6,0.8,2.4,0.8c-0.8,0.8-1.6,0.8-2.4,1.6c0.8,0.8,0.8,1.6,1.6,2.4c-0.8,0-1.6,0-2.4,0c0,0-0.8,0.8-1.6,1.6
						c1.6,0.8,3.2,0.8,4,1.6c-0.8,0.8-0.8,1.6-1.6,1.6l0.8,0.8c-0.8,0-1.6,0.8-2.4,1.6l0.8,0.8c0,0.8-0.8,1.6-1.6,2.4
						c0.8,0,1.6-0.8,2.4-1.6c1.6,1.6,0.8,3.2-0.8,4c0-0.8,0.8-1.6,0.8-2.4c-3.2,0.8-1.6,3.2,0.8,4c0,1.6-0.8,3.2-0.8,5.6
						c-0.8-1.6-3.2-2.4-4.8-3.2c0.8,0.8,1.6,2.4,2.4,3.2c0.8,0,1.6,0,2.4,0c0,1.6-0.8,3.2-1.6,4.8c0,0.8,0.8,2.4,0.8,3.2h-1.6
						c0,1.6,0.8,3.2,0.8,4.8c0,0-0.8,0.8-1.6,0.8c0,1.6,0.8,3.2,0.8,4.8c-0.8,0-1.6,0-2.4,0c0,0.8,0.8,1.6,0.8,2.4
						c-0.8,1.6-0.8,4-1.6,5.6c0.8,0.8,0.8,0.8,1.6,1.6c-0.8,1.6-1.6,3.2-3.2,4c0,0.8,0.8,1.6,0.8,3.2c-0.8,0-2.4,0.8-3.2,0.8
						c0.8,1.6,0.8,2.4-0.8,2.4c0.8,0.8,1.6,1.6,1.6,1.6c0.8,0,1.6,0,2.4,0c-1.6,2.4-3.2,4-4.8,2.4c0,0.8,0,1.6,0,2.4
						c1.6,0,3.2-0.8,4.8,0c-2.4,0.8-4,1.6-6.4,1.6c0,0.8,0.8,1.6,0.8,2.4c3.2,0,4,3.2,0.8,4c0.8,1.6,0.8,4,1.6,5.6
						c-1.6,0-2.4,0.8-4,0c-0.8,0-1.6,0-1.6,0c0.8,0.8,1.6,1.6,1.6,3.2c0.8,0,1.6-0.8,2.4-0.8c0,0.8-0.8,1.6-0.8,3.2
						c0,0.8,0.8,0.8,0.8,1.6c-0.8,0-2.4,0-3.2,0c0.8,0,1.6,0.8,2.4,1.6c-0.8,0.8-1.6,0.8-3.2,1.6c0,0.8,0.8,0.8,0.8,1.6
						c-0.8,1.6-0.8,2.4-2.4,3.2c0.8,0.8,1.6,0.8,2.4,0.8c-0.8,0.8-1.6,2.4-2.4,3.2c0.8,1.6,1.6,2.4,2.4,4c-0.8-0.8-1.6-0.8-3.2-1.6
						c-0.8,1.6-2.4,2.4-3.2,4c1.6,0,3.2-0.8,4.8-0.8c0,1.6-0.8,3.2-0.8,4.8c-0.8,0.8-1.6,0.8-2.4,1.6c0.8,0,1.6,0,2.4,0
						c0,0-0.8,0.8-1.6,1.6c0,0,0.8,0.8,0.8,1.6c-0.8,0-2.4,0-3.2,0c0.8,1.6,3.2,2.4,3.2,4c0-0.8-0.8-1.6-1.6-2.4c-0.8,0-1.6,0-1.6,0
						c0,0.8,0.8,2.4,0.8,3.2c0.8,0.8,0.8,1.6,1.6,1.6c-0.8,0.8-2.4,0.8-3.2,1.6c-0.8,0-1.6,0.8-2.4,1.6c-0.8,0-1.6,0-1.6,0
						c0.8,0.8,1.6,1.6,2.4,2.4c0-0.8,0-1.6,0-2.4c0.8,0,1.6,0,1.6,0s0.8,0.8,0.8,1.6c-0.8,0.8-0.8,1.6-0.8,2.4
						c-0.8,0-0.8-0.8-1.6-0.8c0,0.8-0.8,1.6-1.6,2.4c0.8,0.8,0.8,0.8,1.6,1.6c-0.8,0.8-0.8,2.4-1.6,3.2c-0.8-0.8-1.6-0.8-1.6-0.8
						c-0.8,1.6-1.6,4-1.6,5.6c-0.8,0.8-1.6,2.4-3.2,3.2c0.8,2.4,0,4.8,0,6.4c0,0,0,0.8-0.8,0.8c0.8,0.8,1.6,0.8,1.6,1.6
						c-0.8,0-2.4,0.8-3.2,0.8c1.6,1.6,0,4-0.8,5.6c0.8-0.8,2.4-1.6,3.2-2.4c0,0.8,0,1.6,0,2.4c-0.8,0-1.6,0-1.6,0
						c0.8,0.8,0.8,1.6,1.6,1.6c0,1.6,0.8,4-1.6,5.6c0-0.8,0-1.6-0.8-2.4c0,0-0.8,0.8-1.6,0.8c0.8,1.6,2.4,4,0,5.6
						c0,0.8-0.8,2.4-0.8,3.2c0.8-0.8,1.6-2.4,2.4-3.2c0,0.8,0,1.6,0,2.4c-0.8,0.8-1.6,0.8-1.6,1.6c0.8,0,1.6,0,1.6,0s0,0.8,0,1.6
						c-0.8,0-2.4,0-2.4,0c0.8,0.8,2.4,1.6,3.2,3.2c-0.8,0-1.6,0-3.2,0c0,0.8,0.8,0.8,0.8,1.6c-1.6,0.8-1.6,2.4-2.4,4
						c0.8,0,1.6-0.8,2.4-0.8c0.8,1.6,0.8,3.2,0,4.8c0,0.8,0.8,1.6,0.8,3.2c-0.8,0-1.6,0-2.4,0c-1.6,1.6-2.4,3.2-4,4.8
						c0.8,0,1.6,0.8,2.4,0.8s2.4,0,2.4-0.8c-1.6,0.8-2.4,1.6-4,1.6c1.6,0.8,3.2,1.6,4,2.4c-0.8,0-1.6-0.8-2.4-0.8
						c0.8,1.6,0.8,4,0,5.6c0.8,0.8,0.8,0.8,1.6,1.6c-0.8,0.8-1.6,1.6-2.4,2.4c0.8,1.6,0.8,3.2,0,5.6v0.8c0,0.8-0.8,1.6-0.8,1.6
						c0,3.2,1.6,7.2,0,10.5c-1.6,6.4-1.6,13.7-3.2,20.1c-0.8-0.8-1.6-1.6-2.4-2.4c0,0.8,0.8,1.6,0.8,2.4c-0.8,0-1.6,0.8-2.4,0.8
						c-1.6,1.6-4,0.8-5.6,0l-0.8,0.8c0,0-0.8-0.8-1.6-1.6c-0.8,0-1.6,0.8-1.6,0.8c-0.8-0.8-0.8-2.4-1.6-3.2c-0.8,0-1.6-0.8-1.6-0.8
						c0-1.6,0-3.2-0.8-5.6c0-0.8,0.8-1.6,0.8-2.4l0.8-0.8c0-0.8-0.8-1.6-0.8-2.4c0.8,0,1.6,0,1.6,0c-0.8-0.8-0.8-1.6-1.6-2.4
						c0.8-1.6,0.8-3.2,0.8-4.8c-0.8-1.6-0.8-2.4,0-4l0.8,0.8c0.8-0.8,2.4-2.4,3.2-3.2c-1.6,0-2.4,0.8-4,0.8c0-0.8-0.8-1.6-0.8-2.4
						c1.6-2.4,1.6-4.8,0.8-7.2c0,0,0.8-0.8,1.6-0.8c0-1.6,0-2.4,0-4c0-2.4,0.8-4.8,1.6-8c0-0.8-0.8-1.6-0.8-2.4c0.8,0,0.8,0,1.6,0
						c-0.8-3.2,0-6.4,0-8.8c0,0,0.8,0,1.6,0c-0.8-1.6-0.8-3.2-1.6-4.8c0.8,0.8,1.6,0.8,2.4,1.6c0-0.8-0.8-1.6-0.8-2.4l0.8-0.8
						c-0.8-0.8-1.6-1.6-1.6-1.6c0.8,0,1.6,0,2.4,0c-0.8-0.8-1.6-1.6-1.6-2.4c0.8-0.8,1.6-2.4,1.6-3.2l-0.8-0.8c0.8-1.6,0.8-3.2,0-4
						c3.2-0.8,0.8-4,0.8-5.6c0.8-0.8,1.6-1.6,2.4-1.6c0,0-0.8-0.8-0.8-1.6c0.8-0.8,1.6-2.4,2.4-3.2c-0.8,0-1.6,0.8-3.2,0.8
						c0-1.6,0-3.2,1.6-3.2c0-1.6,0-3.2,0-4.8c0.8,0,1.6-0.8,1.6-1.6c0,0-0.8-0.8-0.8-1.6c0.8-0.8,1.6-1.6,2.4-2.4
						c-0.8-1.6-1.6-2.4-2.4-4c0.8-0.8,0.8-1.6,1.6-2.4c0.8,0,1.6,0,2.4,0c0-0.8,0-1.6,0-1.6c-0.8,0-1.6,0.8-2.4,0.8
						c0.8-2.4,1.6-4,3.2-6.4c-0.8,0-2.4,0.8-3.2,0.8c0.8-1.6,2.4-3.2,4-4c-0.8-1.6-1.6-2.4-3.2-2.4V185c0.8,0,1.6,0,1.6,0
						c0.8,0.8,0.8,0.8,1.6,1.6c0-0.8,0.8-1.6,0.8-2.4c-0.8-0.8-1.6-0.8-2.4-1.6l0.8-0.8c-1.6-0.8-3.2-1.6-4-3.2c1.6,0,3.2,0.8,4,0.8
						c0,0,0-0.8,0-1.6c-0.8,0-1.6,0-2.4,0c0.8-0.8,0.8-1.6,1.6-3.2c0.8,0,1.6,0,2.4,0c0-0.8-0.8-0.8-1.6-1.6
						c-0.8,0.8-1.6,1.6-2.4,1.6c0.8-3.2,0.8-6.4,0.8-9.7l-0.8-0.8c0.8-0.8,1.6-1.6,1.6-2.4c-1.6-0.8-1.6-2.4-2.4-3.2
						c0.8-0.8,0.8-0.8,1.6-1.6l0.8,0.8c0.8-0.8,0.8-0.8,1.6-1.6c-0.8-2.4-0.8-4-1.6-6.4c0,0-0.8-0.8-1.6-0.8c0-1.6,0-4-0.8-5.6
						c0,0,0.8,0,1.6,0c0,0-0.8-0.8-0.8-1.6c0,0,0.8-0.8,0.8-1.6c-0.8,0-1.6-0.8-2.4-0.8c0.8-0.8,1.6-1.6,2.4-2.4
						c-3.2-4,0.8-7.2,4-9.7c-0.8,0-1.6-0.8-3.2-0.8c0,1.6-0.8,2.4-0.8,4c0-1.6,0-3.2,0-4.8c1.6-1.6,4.8-2.4,4.8-4.8
						c-1.6,0.8-3.2,1.6-4,3.2c-0.8-1.6-0.8-3.2-0.8-4.8c1.6-0.8,2.4-1.6,4-1.6c-0.8-0.8-1.6-0.8-1.6-1.6c0.8,0,1.6-0.8,2.4-0.8
						c-0.8-1.6,0-3.2,1.6-4.8c-0.8,0-1.6,0.8-2.4,0.8c-0.8-0.8-1.6-1.6-1.6-2.4c1.6,0,2.4-1.6,1.6-2.4c0,0,0.8-0.8,1.6-0.8
						c0,0,0-0.8,0-1.6c0.8-0.8,1.6-1.6,1.6-2.4c-0.8,0-2.4,0-3.2,0c0.8-0.8,0.8-1.6,1.6-2.4c0.8,0.8,1.6,0.8,2.4,1.6
						c-0.8-1.6-0.8-3.2,0-4c0,0-0.8-0.8-0.8-1.6c0,0,0.8-0.8,1.6-1.6c-0.8,0-2.4,0-2.4,0c0,0.8,0.8,1.6,0.8,3.2
						c-1.6-0.8-1.6-2.4-1.6-4c1.6-0.8,2.4-0.8,4-1.6c-0.8,0-1.6,0-1.6,0c0-0.8,0-1.6,0-1.6c-0.8-0.8-1.6-1.6-2.4-3.2
						c1.6,0.8,3.2,0.8,4.8,1.6v-0.8c-0.8,0-1.6,0-2.4,0c0-0.8,0-1.6,0-1.6c0.8,0,1.6,0.8,2.4,0.8c-0.8-0.8-1.6-2.4-2.4-3.2
						c0.8,0,1.6,0,1.6,0c0-1.6-0.8-3.2-0.8-4.8c-0.8-0.8-1.6-1.6-1.6-1.6c0.8-0.8,1.6-1.6,2.4-2.4c-0.8-1.6-0.8-3.2,0-4.8
						c-0.8,0.8-1.6,0.8-2.4,1.6c0-2.4,0-4,0-6.4c0,0,0.8,0,1.6,0c-0.8-1.6-0.8-3.2-0.8-4c0.8-2.4,0.8-4.8,0.8-7.2
						c0.8-0.8,0.8-0.8,1.6-1.6c-0.8-1.6-0.8-3.2-0.8-4.8c2.4-4,1.6-8.8,3.2-12.9c-0.8-1.6,0-3.2,0.8-4c0-0.8,0-2.4,0-3.2
						c0,0,0.8-0.8,0.8-1.6c0,0-0.8-0.8-0.8-1.6c0-0.8,0.8-1.6,0.8-2.4c0.8,0,1.6,0.8,2.4,0.8c-0.8-1.6-1.6-2.4-3.2-3.2
						c0-0.8,0.8-1.6,0.8-1.6c1.6-0.8,2.4-2.4,2.4-4c0-0.8-0.8-1.6-0.8-1.6c0.8,0,1.6,0,2.4,0c0.8-1.6,1.6-2.4,3.2-3.2
						c-0.8-3.2,3.2-5.6,5.6-8c1.6,0.8,3.2,1.6,4.8,1.6C382.1,1.6,381.3,0.8,380.5,0z M386.1,5.6c0.8,0.8,1.6,1.6,2.4,2.4
						c0-0.8,0-2.4,0-4C387.7,4.8,386.9,4.8,386.1,5.6z M391.8,6.4c-0.8,0.8-1.6,2.4-2.4,3.2c1.6-0.8,2.4-0.8,4-1.6
						C392.6,8,391.8,7.2,391.8,6.4z M392.6,18.5c-0.8,0.8,0.8,2.4,1.6,1.6C395,19.3,393.4,17.7,392.6,18.5z M399.8,37.8
						c-0.8,0-2.4,0.8-1.6,1.6C399,40.2,401.4,37.8,399.8,37.8z M391,87.7c-0.8,1.6,1.6,1.6,2.4,0.8C394.2,87.7,391.8,86.9,391,87.7z
						 M359.6,104.6c0.8,0.8,1.6,1.6,3.2,2.4v0.8c0.8,0,1.6,0,2.4,0C362.8,107,361.2,105.4,359.6,104.6z M359.6,107.8
						c0.8,1.6,0.8,4,0,5.6l0.8,0.8c0.8-0.8,1.6-1.6,1.6-3.2C361.2,110.2,360.4,108.6,359.6,107.8z M358,119.9
						c-0.8,1.6,2.4,2.4,2.4,0.8S358.8,119.1,358,119.9z M358.8,125.5c-0.8,0.8,0.8,1.6,1.6,1.6C361.2,125.5,359.6,124.7,358.8,125.5
						z M355.6,133.5c0.8,0.8,1.6,1.6,2.4,2.4c0-0.8,0-2.4,0-3.2c0.8,0,1.6-0.8,2.4-1.6C358.8,131.1,357.2,132.7,355.6,133.5z
						 M381.3,140.8c0,0.8,1.6,1.6,2.4,0C383.7,140,382.1,140,381.3,140.8z M354.8,145.6c-1.6,0.8-0.8,2.4,0.8,1.6
						C357.2,147.2,355.6,144.8,354.8,145.6z M354,153.6c0,0.8,0.8,3.2,1.6,3.2C356.4,155.3,355.6,153.6,354,153.6z M348.3,308.9
						c-0.8,0.8,0,2.4,0.8,1.6C349.9,309.7,349.1,308.1,348.3,308.9z"/>
				</g>
				<g>
					<path fill="#FFFFFF" d="M428,12.1c1.6,0,2.4,0,4,0c0.8,0.8,1.6,1.6,2.4,2.4c2.4-1.6,4,0,5.6,1.6c-0.8,0.8-1.6,1.6-2.4,2.4
						c0.8,0,1.6-0.8,2.4-1.6c0.8,0.8,1.6,1.6,2.4,2.4c0,0.8-0.8,0.8-0.8,1.6c0.8,0,0.8,1.6,0,2.4c0,0,0.8,0.8,1.6,0.8
						c0,0.8,0,1.6,0,1.6c1.6,0.8,4,0.8,4.8,2.4c-0.8,0-1.6-0.8-2.4-0.8c0.8,0.8,1.6,1.6,1.6,3.2c0.8-0.8,1.6-1.6,1.6-2.4
						c0,0.8-0.8,2.4-1.6,3.2c0.8,0.8,1.6,1.6,2.4,2.4c0,0.8,0,1.6,0,1.6s-0.8,0-1.6,0c0.8,0.8,0.8,2.4,0,4c0.8,0.8,0.8,1.6,1.6,2.4
						c-0.8,0.8-1.6,0.8-1.6,1.6c2.4,0.8,2.4,2.4,1.6,4.8l0.8,0.8c-0.8,0.8-0.8,1.6-0.8,2.4c-1.6,0.8-2.4,1.6-4,2.4
						c1.6,0.8,2.4,2.4,4,3.2c0,2.4,0,4.8,0,6.4c-0.8,0.8-0.8,0.8-1.6,1.6c0.8,0.8,0.8,0.8,1.6,1.6c-0.8,4,0,8-1.6,11.3l-0.8,0.8
						c-0.8,0-1.6-0.8-2.4-0.8c-0.8,1.6,2.4,2.4,3.2,3.2c-0.8,0-1.6,0-2.4,0.8s-1.6,1.6-2.4,2.4c-0.8-0.8-1.6-2.4-3.2-3.2
						c0,1.6,1.6,2.4,2.4,3.2c0,1.6-0.8,2.4-0.8,4c0,0,0.8,0,1.6,0c-0.8,1.6-0.8,2.4,0.8,2.4c0,0,0,0.8,0,1.6c-0.8,0-1.6,0.8-2.4,0.8
						c1.6,0.8,1.6,2.4,1.6,4c0.8,0,1.6,0.8,2.4,0.8c-0.8,0.8-0.8,1.6-1.6,2.4l0.8,0.8c-0.8,0-1.6,0.8-1.6,1.6c0,0.8,0.8,2.4,0.8,3.2
						c-0.8,0-1.6,0-2.4,0c0.8,0.8,1.6,1.6,2.4,3.2c-1.6,0-2.4,0-4,0c0.8,0.8,1.6,1.6,1.6,2.4c-1.6-0.8-2.4-1.6-4-2.4
						c0,1.6,1.6,2.4,2.4,3.2c-0.8,0.8-1.6,1.6-1.6,2.4c0.8,0,1.6-0.8,3.2-0.8c-0.8,1.6-1.6,3.2-1.6,4.8c0,0,0.8,0.8,0.8,1.6
						c0,0-0.8,0.8-0.8,1.6c0,0.8,0.8,1.6,0.8,2.4c-0.8-0.8-2.4-1.6-3.2-2.4c0,0.8,0,1.6,0,1.6c0.8,0,1.6,0,2.4,0c0,0,0,0.8,0,1.6
						c-0.8,0-1.6,0-1.6,0c0.8,0.8,1.6,0.8,2.4,1.6c0,0.8-0.8,1.6-0.8,1.6c-0.8,0-1.6,0.8-2.4,0.8c0.8,0.8,1.6,0.8,1.6,1.6
						c-0.8,0.8-2.4,1.6-3.2,2.4c0,0,0.8,0.8,0.8,1.6c-0.8,1.6-2.4,3.2-3.2,4c0,0,0.8,0.8,1.6,1.6c0,0.8,0,1.6,0,2.4
						c-0.8,0-1.6-0.8-2.4-0.8c-0.8,1.6-0.8,4-0.8,5.6c0.8-0.8,1.6-1.6,2.4-2.4c0,1.6,0,2.4,0,4c-0.8,0-1.6-0.8-1.6-1.6
						c-1.6,1.6-2.4,4-0.8,6.4c-0.8,1.6,0,3.2,0,4c-1.6,0-2.4,0-4-0.8c0.8,0.8,1.6,1.6,2.4,3.2c0.8,0,1.6-0.8,1.6-1.6
						c0,0.8,0,1.6,0,2.4c-0.8,0-1.6,0-1.6,0c-0.8-0.8-0.8-1.6-1.6-2.4c0,1.6,0,2.4,0,4c1.6,0.8,1.6,2.4,2.4,4
						c-0.8,0-2.4,0.8-3.2,0.8c0.8,0.8,1.6,1.6,2.4,2.4c0,0,0,0.8,0,1.6c-1.6,1.6-2.4,4-2.4,6.4c0,0-0.8,0.8-0.8,1.6
						c0,1.6-0.8,2.4-2.4,2.4c0.8,0.8,0.8,1.6,1.6,1.6c0,1.6,0,3.2,0,4.8l-0.8-0.8c-1.6-1.6-1.6,1.6,0,0c0,0.8,0,1.6,0,2.4
						c0.8,0,2.4-0.8,3.2-0.8c0,0,0,0.8,0,1.6c-1.6,0-2.4,0.8-4,0.8c1.6,2.4,1.6,4.8,0.8,7.2c0,0,0.8,0.8,0.8,1.6c-0.8,0-2.4,0-2.4,0
						c0.8,0.8,1.6,1.6,1.6,2.4c-0.8,0.8-1.6,0.8-2.4,1.6c0,0.8,0.8,0.8,0.8,1.6c-0.8,1.6-1.6,3.2-2.4,4c0.8,0,1.6-0.8,2.4-0.8
						c-0.8,1.6-1.6,2.4-2.4,3.2c0,0.8,0,1.6,0,2.4c-0.8,0.8-0.8,0.8-1.6,1.6c0.8,1.6,0,4,0,5.6c1.6,3.2-3.2,5.6-0.8,8.8
						c-0.8,0.8-0.8,0.8-1.6,1.6c0,0.8-0.8,2.4-2.4,3.2c3.2,1.6,0.8,5.6,2.4,8c-0.8,1.6-1.6,2.4-2.4,4c0.8,0,1.6-0.8,2.4-0.8
						c0,0.8,0,2.4,0,3.2c-0.8,0-1.6,0.8-2.4,0.8c0.8,0.8,1.6,1.6,2.4,2.4c-0.8,1.6-0.8,2.4,0,4l-0.8,0.8c0,0.8,0,2.4,0.8,3.2
						c-0.8-0.8-2.4-2.4-3.2-3.2c0,0.8,0,1.6,0,2.4c0,0,0.8,0.8,1.6,0.8c0,0.8-0.8,1.6-0.8,3.2c-0.8,0-1.6,0-1.6,0
						c0,0.8,0.8,2.4,0.8,3.2c0,0,0.8,0,1.6,0c0-0.8-0.8-1.6-0.8-2.4c0,0,0.8,0,1.6,0c0,1.6,0.8,3.2,0.8,5.6c-1.6,0-4,0-5.6-0.8
						c0.8,0.8,1.6,1.6,3.2,3.2c0,0-0.8,0.8-1.6,1.6c0.8,0,1.6,0,1.6,0c0-0.8,0-1.6,0-2.4c0.8,0.8,1.6,0.8,2.4,1.6c0,1.6,0,2.4,0,4
						c-0.8,0-1.6,0.8-1.6,1.6c0.8,0.8,1.6,1.6,1.6,1.6c-0.8,0-1.6,0-1.6,0s0,0.8,0,1.6c0.8,0,1.6-0.8,2.4-0.8
						c-0.8,0.8-0.8,1.6-1.6,2.4c0,1.6-0.8,2.4-0.8,4c0,0,0.8,0.8,0.8,1.6c-0.8-0.8-2.4-0.8-3.2-1.6c0.8,1.6,1.6,2.4,2.4,3.2
						c0,1.6,0,4-0.8,5.6c0.8,0.8,0.8,1.6,1.6,2.4c-0.8-0.8-1.6-0.8-2.4-1.6c0.8,1.6,0.8,2.4,0,4c0,0,0.8,0.8,1.6,0.8
						c-0.8,0.8-1.6,2.4-2.4,3.2l0.8,0.8c-4-1.6-4-0.8-4,0.8c-1.6,1.6-3.2,3.2-4,4.8c-3.2,0-6.4-1.6-10.5-3.2c0-0.8,0.8-1.6,1.6-2.4
						c-0.8,0-1.6,0.8-2.4,0.8c-1.6-0.8-3.2-1.6-4.8-2.4c0.8-2.4,0.8-4-1.6-4.8l0.8-0.8c-0.8-0.8-1.6-2.4-1.6-3.2l0.8-0.8
						c-0.8,0-1.6-0.8-1.6-1.6c0.8-0.8,1.6-0.8,1.6-1.6c-0.8,0-1.6-0.8-1.6-1.6l0.8-0.8c0,0-0.8-0.8-0.8-1.6c0.8-0.8,1.6-0.8,1.6-1.6
						c0.8,0,1.6,0,2.4,0c-0.8-0.8-1.6-1.6-2.4-2.4c0-1.6,0-3.2,0-4.8c0.8,0,2.4,0.8,3.2,0.8c-0.8-1.6-1.6-3.2-1.6-4.8
						c0.8,0,2.4,0,3.2,0c-0.8,0-1.6-0.8-2.4-1.6c1.6-0.8,2.4-1.6,0.8-3.2c0.8-0.8,1.6-1.6,1.6-2.4c-0.8,0-1.6,0-2.4,0
						c0.8-0.8,1.6-1.6,2.4-2.4c0,0-0.8-0.8-0.8-1.6c0.8-0.8,0.8-0.8,1.6-1.6c-1.6-3.2,0-6.4,0.8-8.8l-0.8-0.8
						c0.8-2.4,0.8-4.8,1.6-7.2l-0.8-0.8c0.8-0.8,0.8-2.4,1.6-3.2c-0.8-0.8-0.8-1.6-0.8-2.4c1.6,0,2.4,0,4,0c-0.8-0.8-1.6-2.4-2.4-4
						c0.8-0.8,1.6-0.8,2.4-1.6c0-0.8,0-1.6,0-1.6l-0.8-0.8c-0.8,1.6-1.6,2.4-3.2,3.2c0-2.4,0.8-4.8,1.6-6.4c0,0,0-0.8-0.8-0.8
						c0-0.8,0-2.4,0-3.2c1.6-0.8,3.2-0.8,4.8-0.8c-1.6-1.6-3.2-3.2-4.8-4.8c0-0.8-0.8-1.6-0.8-2.4c0.8,0,1.6-0.8,2.4-0.8
						c-0.8-0.8-0.8-0.8-1.6-1.6c0-2.4,0-4-0.8-6.4c0.8,0,1.6,0.8,3.2,0.8c-0.8-0.8-1.6-2.4-2.4-3.2c0.8,0.8,2.4,0.8,3.2,0.8
						c-0.8-0.8-0.8-1.6-1.6-2.4c0-0.8,0.8-2.4,0-3.2c1.6,0,2.4-0.8,2.4-1.6c0-0.8,0-1.6,0-1.6c-0.8,0-1.6,0.8-2.4,0.8
						c0.8-0.8,1.6-1.6,2.4-2.4c-0.8-0.8-1.6-2.4-2.4-2.4c0.8-0.8,1.6-1.6,3.2-2.4c-0.8,0-1.6-0.8-2.4-0.8c0,0,0.8-0.8,1.6-1.6
						c0.8,0,2.4,0.8,3.2,0.8c0.8-0.8,1.6-1.6,2.4-2.4c0.8,0,1.6,0,1.6,0s-0.8-0.8-0.8-1.6c-1.6,0.8-2.4,1.6-4,2.4
						c-0.8-0.8-1.6-1.6-1.6-2.4c0,0.8-0.8,1.6-0.8,2.4c-0.8-0.8-1.6-2.4-2.4-3.2c0.8,0,2.4,0,3.2,0c0-1.6,0.8-4-0.8-4
						c0-0.8,0-2.4,0-3.2c0.8,0,1.6,0,1.6,0c-0.8-0.8-1.6-1.6-2.4-2.4c1.6,0,2.4,0.8,4,0.8c-1.6-1.6-2.4-3.2-4.8-4.8
						c0.8,0,1.6,0,2.4,0c0.8,0.8,1.6,1.6,2.4,2.4c-0.8-1.6-1.6-3.2-3.2-4c0.8-1.6,1.6-2.4,2.4-4c0-0.8-0.8-1.6-0.8-1.6
						c0.8,0.8,1.6,0.8,3.2,1.6c-0.8-0.8-0.8-1.6-1.6-2.4c-0.8-0.8-1.6-0.8-2.4-1.6c0,0,0.8-0.8,1.6-1.6c-0.8-1.6-3.2-4,0-4
						c0-0.8-0.8-1.6-0.8-3.2c0.8,0,1.6,0.8,2.4,0.8c0-0.8,0-1.6,0-2.4c0,0-0.8,0.8-1.6,0.8c0-1.6-0.8-3.2-0.8-4.8
						c0.8,0,1.6-0.8,2.4-0.8c-0.8,0-1.6,0-1.6,0c0-2.4-0.8-4.8-0.8-7.2c0,0,0.8,0,1.6,0c0-0.8-0.8-2.4-0.8-3.2
						c0.8,0.8,1.6,1.6,3.2,2.4c-0.8-0.8-0.8-1.6-1.6-2.4c0-0.8,0-1.6,0-2.4c0.8,0,1.6,0,2.4,0c-0.8-0.8-0.8-2.4-1.6-3.2
						c0.8-0.8,2.4-0.8,3.2-1.6c0-1.6,0-2.4,0-4c-0.8,0-1.6,0.8-2.4,0.8c0-1.6,0-3.2,0.8-5.6c0.8,0,1.6,0,2.4,0
						c0-0.8-0.8-1.6-0.8-2.4c-0.8,0-1.6,0.8-2.4,0.8c1.6-1.6,4-3.2,2.4-5.6c0.8-0.8,0.8-1.6,1.6-2.4c0.8,0,1.6,0,2.4,0
						c-0.8-0.8-1.6-0.8-2.4-1.6c0-0.8-0.8-2.4-0.8-3.2c0.8-0.8,1.6-1.6,1.6-2.4c-4.8-0.8-0.8-5.6-2.4-8.8c0.8-0.8,1.6-1.6,1.6-1.6
						c-2.4-2.4-1.6-5.6,0-8.8c0-2.4-1.6-4.8,1.6-6.4l-0.8-0.8c0-0.8,0.8-1.6,0.8-2.4c0-1.6,0.8-3.2,0.8-4.8c-1.6-4,1.6-8,0.8-12.1
						c0.8-3.2,0.8-7.2,0.8-10.5c0-1.6,0-2.4-0.8-4c0-2.4,0.8-4,0.8-6.4c0,0,0-0.8-0.8-0.8c0.8-1.6,0.8-2.4,0.8-4
						c0-0.8,0.8-1.6,0.8-2.4c-0.8-3.2,0.8-8.8,4-10.5c0-0.8-0.8-1.6-0.8-1.6c0.8,0,2.4,0.8,3.2,0.8c0-0.8,0.8-1.6,0.8-3.2
						c0.8,0,0.8-0.8,1.6-0.8C427.2,12.9,427.2,12.9,428,12.1z M431.2,13.7c-0.8,0.8,0,2.4,0.8,1.6C433.6,15.3,432,12.9,431.2,13.7z
						 M427.2,56.3c-0.8,0.8,0.8,2.4,1.6,1.6C429.6,57.1,428,55.5,427.2,56.3z M444,76.4c-1.6,0-0.8,3.2,0.8,1.6
						C445.7,78,445.7,75.6,444,76.4z M437.6,82.1c0.8,0,1.6,0,1.6-1.6C438.4,81.2,437.6,81.2,437.6,82.1z M440.8,85.3
						c-0.8,0.8-1.6,1.6-1.6,3.2C440,88.5,442.4,86.1,440.8,85.3z M442.4,98.9c-0.8,0.8,0.8,1.6,1.6,0.8
						C444.9,98.9,443.2,98.1,442.4,98.9z M433.6,107c-0.8,0.8-0.8,0.8-1.6,1.6c-0.8,0-1.6-0.8-2.4-1.6c0.8,0.8,1.6,1.6,2.4,2.4
						c-0.8,0-1.6,0-2.4,0c1.6,1.6,4,2.4,6.4,2.4v-1.6c-0.8,0-1.6,0-1.6,0s-0.8-0.8-1.6-1.6c0.8,0,2.4,0,2.4,0
						C435.2,108.6,434.4,107.8,433.6,107z M436,117.4c-0.8,0.8,0,2.4,0.8,1.6C438.4,118.3,437.6,116.6,436,117.4z M432.8,126.3
						c0.8,0,1.6-1.6,1.6-3.2C432.8,123.1,431.2,125.5,432.8,126.3z M407.8,129.5c-0.8,0.8,0,2.4,0.8,1.6
						C409.5,130.3,408.7,128.7,407.8,129.5z M405.4,140c-1.6,0-0.8,2.4,0.8,2.4C407,142.4,406.2,139.2,405.4,140z M406.2,183.4
						c2.4,0,4-0.8,5.6-2.4C409.5,181,407.8,182.6,406.2,183.4z M407.8,185c0.8,0.8,2.4,0.8,3.2,1.6c0-0.8,0-2.4,0-2.4
						C409.5,183.4,408.7,184.2,407.8,185z M422.3,185.8c-0.8,1.6,2.4,1.6,1.6,0C423.1,185.8,422.3,185.8,422.3,185.8z M419.9,193.1
						c-0.8,0.8-0.8,3.2,0.8,2.4C421.5,195.5,421.5,193.1,419.9,193.1z M400.6,218.8c0.8,0.8,1.6,1.6,1.6,1.6
						c0.8-1.6,1.6-3.2,1.6-5.6C403,216.4,401.4,217.2,400.6,218.8z M400.6,230.1c0.8,0,0.8,0,0.8-0.8
						C400.6,226.8,399,229.3,400.6,230.1z M411.9,275.9c0.8,0,1.6,0,1.6-1.6C411.9,274.3,411.9,275.1,411.9,275.9z M407.8,307.3
						c-0.8,0.8-0.8,1.6-0.8,3.2C407.8,310.5,409.5,307.3,407.8,307.3z M403.8,308.1c-0.8,0.8,0.8,3.2,1.6,1.6
						C406.2,309.7,404.6,307.3,403.8,308.1z"/>
				</g>
				<g>
					<path fill="#FFFFFF" d="M168.1,22.5c3.2-1.6,6.4-3.2,8-5.6c0.8,2.4,2.4,1.6,2.4,0c1.6,0.8,2.4,1.6,3.2,2.4c0,0,0.8,0,1.6,0
						c0,0,0.8,0.8,1.6,1.6c3.2,0.8,5.6,3.2,7.2,5.6c1.6,0.8,2.4,1.6,4,2.4c-0.8,0-1.6,0-2.4,0c-0.8,0.8-1.6,0.8-2.4,1.6
						c1.6,0,3.2,0,4.8,0c0,0.8-0.8,2.4-0.8,3.2c0,0,0.8,0.8,1.6,1.6c0,2.4,0.8,4.8,0.8,7.2c-0.8,0.8-1.6,1.6-2.4,2.4
						c1.6,0,2.4-0.8,4-0.8c0,0.8,0,1.6-0.8,2.4c0,1.6,0,2.4,0,4c0,0.8,0,1.6,0,3.2c-0.8,0-1.6,0.8-2.4,0.8c0.8,0,1.6,0.8,2.4,0.8
						c-0.8,0.8-2.4,2.4-3.2,3.2c0,0.8-0.8,1.6-0.8,2.4c0.8-0.8,2.4-1.6,3.2-2.4c0,1.6,0,3.2-0.8,4.8l0.8,0.8c-0.8,1.6-0.8,2.4,0,4
						c-2.4,1.6-4,1.6-4.8,4c0.8,0,1.6-0.8,3.2-0.8c0,2.4,0,4-0.8,5.6c0,0,0.8,0,1.6,0c-1.6,1.6-1.6,4-1.6,6.4l-0.8,0.8
						c0.8,1.6,0,2.4,0,4c-0.8,0.8-1.6,0.8-2.4,1.6c0.8,0.8,2.4,1.6,3.2,1.6c-2.4,0.8-4.8,0.8-6.4,3.2c1.6,0,3.2,0,4.8-0.8
						c-0.8,0.8-2.4,2.4-1.6,4c-0.8,0-1.6,0-1.6,0c0,0.8-0.8,1.6-0.8,2.4c1.6,2.4,0,4-1.6,5.6c0,0.8,0.8,0.8,0.8,1.6
						c0,0-1.6,0.8-1.6,1.6c0,0.8,0,1.6,0,3.2c-0.8,1.6-2.4,2.4-3.2,4v1.6c-0.8,0-1.6,0-1.6,0c1.6,0.8,1.6,3.2,2.4,4.8
						c0,0.8-0.8,1.6-0.8,2.4c-0.8,0-1.6,0-1.6,0c0,0.8,0,1.6,0,2.4c-1.6,0.8-3.2,2.4-4,4c1.6-0.8,3.2-1.6,4-2.4
						c0,3.2-2.4,4.8-5.6,6.4c0.8,0,2.4,0.8,3.2,0.8c0,0.8-0.8,1.6-0.8,2.4c-0.8,0-2.4,0.8-3.2,0.8c0.8,0.8,0.8,0.8,1.6,1.6
						c0,0.8,0,1.6,0,2.4c-0.8,0.8-1.6,1.6-2.4,2.4c0,0,0.8,0.8,0.8,1.6c-0.8,0-1.6,0.8-2.4,0.8c0,0.8,0.8,1.6,0.8,1.6
						c-1.6,0-2.4-0.8-4-0.8c0.8,0.8,1.6,1.6,1.6,2.4s0,1.6,0,2.4c-0.8-0.8-2.4-1.6-3.2-2.4c0.8,1.6,2.4,2.4,3.2,4
						c-0.8,0.8-2.4,2.4-3.2,3.2c0.8,0.8,1.6,1.6,1.6,2.4c-0.8,0.8-1.6,0.8-2.4,1.6c0,0.8,0.8,2.4,0.8,3.2c-0.8,0-1.6-0.8-2.4-0.8
						c0,0.8-0.8,1.6-0.8,2.4c-0.8,0-1.6-0.8-2.4-0.8c0.8,1.6,2.4,2.4,3.2,3.2c0,0.8-0.8,1.6-0.8,2.4c0,0-0.8,0.8-1.6,1.6l0.8,0.8
						c-0.8,0-1.6,0-1.6,0c0,0.8,0,1.6,0,1.6s0.8,0.8,1.6,1.6c-1.6,1.6-2.4,3.2-4,4.8c0,0.8,0.8,1.6,0.8,3.2c-1.6-0.8-2.4-1.6-4-2.4
						c0,0.8,0,1.6,0,2.4c0.8,0,1.6,0,2.4,0v0.8c-0.8,0-1.6,0-2.4,0c2.4,0.8,1.6,2.4,0,3.2c0.8,0,2.4,0.8,3.2,0.8
						c-0.8,0.8-2.4,0.8-3.2,1.6c0,0.8,0.8,1.6,0.8,1.6s-0.8,0.8-1.6,1.6c0,0,0.8,0.8,0.8,1.6c-1.6,0.8-4,1.6-5.6,3.2
						c1.6,0,3.2-0.8,4-0.8c0,0-0.8,0.8-1.6,0.8c0,0.8-0.8,1.6-1.6,3.2c0.8,0,1.6,0,2.4,0c-0.8,0.8-0.8,1.6-1.6,2.4l0.8,0.8
						c-1.6-1.6-1.6-0.8-2.4-0.8c0.8,0,1.6,0.8,1.6,1.6c-0.8,0.8-1.6,1.6-2.4,3.2c-0.8,0-1.6-0.8-2.4-0.8c0.8,1.6,1.6,2.4,2.4,3.2
						c-0.8,0.8-1.6,0.8-3.2,1.6c0.8,0.8,1.6,0.8,2.4,1.6c-0.8,0.8-1.6,0.8-1.6,1.6c0,1.6,0.8,2.4,0.8,4c-0.8,0-1.6,0.8-2.4,0.8
						c0.8,2.4,0,4,0,6.4c0,0-0.8,0.8-1.6,0.8c1.6,3.2-1.6,4.8-3.2,7.2c0.8,0,1.6-0.8,2.4-0.8c0,0.8,0,1.6,0,2.4c-0.8,0-1.6,0-1.6,0
						s0.8,0.8,0.8,1.6l-0.8,0.8c0,0.8,0.8,1.6,0.8,2.4c-0.8,0-1.6-0.8-2.4-1.6c0.8,1.6,0.8,2.4,1.6,4c-2.4,0.8-2.4,2.4-0.8,4
						c-0.8,0-1.6,0.8-2.4,0.8c1.6,0.8,1.6,2.4,0.8,4c0.8,0.8,1.6,1.6,2.4,2.4c0.8,0,1.6-0.8,2.4-0.8l-0.8-0.8c1.6-0.8,2.4-2.4,4-3.2
						l-0.8-0.8c1.6-0.8,3.2-1.6,4-3.2c0,0,0.8,0,1.6,0c1.6-1.6,3.2-3.2,5.6-4.8c0-0.8,0-1.6,0-1.6c0.8-0.8,2.4-0.8,3.2-1.6
						c0.8-1.6,2.4-3.2,3.2-4.8c0-0.8,0-1.6,0-2.4c1.6-1.6,2.4-3.2,4-4.8c0,0,0-0.8,0-1.6c0,0,0.8-0.8,1.6-1.6c0,0,0-0.8,0-1.6
						c1.6-0.8,2.4-3.2,2.4-4.8c0.8,0,0.8-0.8,1.6-0.8c2.4-2.4,4-5.6,5.6-8.8l-0.8-0.8c0.8,0,1.6-0.8,2.4-0.8c2.4-3.2,5.6-4.8,8-7.2
						c0.8-2.4,2.4-4,4-6.4c0.8,0,1.6,0,1.6,0c-2.4-4,4-4,3.2-8c0.8-0.8,1.6-1.6,2.4-2.4c2.4-1.6,3.2-4,4.8-4.8c0-0.8,0-1.6,0-2.4
						c1.6-0.8,2.4-2.4,1.6-4c0,0,0.8,0.8,0.8,1.6c0.8-4.8,7.2-6.4,6.4-11.3c0.8,0.8,2.4,0.8,3.2,0.8c-0.8-0.8-1.6-1.6-1.6-2.4
						c0.8-0.8,0.8-1.6,1.6-2.4c0.8,0,1.6,0,2.4,0c0,0,0.8-0.8,1.6-1.6c0.8,0,1.6,0,2.4,0c0-0.8,0-1.6,0-1.6c-1.6,0-2.4,0-4,0.8
						c0.8-1.6,0.8-3.2,1.6-4c0.8,0,1.6,0,3.2,0c0-0.8,0-1.6,0-1.6l0.8,0.8c0.8-1.6,2.4-1.6,4-2.4l-0.8-0.8c0.8,0,1.6,0,1.6,0
						c-0.8-0.8-0.8-1.6-1.6-2.4c1.6-3.2,4-6.4,7.2-8c0-0.8,0-1.6,0-2.4c0.8,0,2.4,0,2.4,0c-0.8,0.8-1.6,1.6-2.4,2.4
						c1.6,0,2.4-1.6,3.2-2.4c0.8,0,1.6-0.8,2.4-0.8c-0.8-0.8-0.8-0.8-1.6-1.6c0,0.8,0,1.6,0,1.6s-0.8-0.8-1.6-1.6
						c1.6-1.6,2.4-3.2,4-4.8c0-1.6,0-3.2,0.8-4c3.2,0,5.6-0.8,8-1.6c2.4-0.8,4.8,1.6,8,0.8l0.8,0.8c0.8,0,1.6-0.8,1.6-1.6
						c0.8,1.6,2.4,3.2,3.2,4.8c0.8,0,1.6-0.8,1.6-0.8c1.6,1.6,3.2,4,4.8,5.6c0,0.8-0.8,0.8-0.8,1.6c0.8,0.8,1.6,1.6,1.6,1.6
						c-0.8,0-2.4,0-3.2,0c0.8,0.8,1.6,1.6,2.4,1.6c-0.8,0-1.6,0-2.4,0c0.8,1.6,1.6,4,1.6,5.6c-0.8,0-1.6,0.8-2.4,0.8
						c0,0.8,0,1.6,0,1.6c-0.8,0-1.6,0.8-1.6,1.6l0.8,0.8c0,0-0.8,0.8-1.6,1.6l0.8,0.8c-2.4,0.8-4,1.6-5.6,3.2c0.8,0,1.6,0,2.4,0.8
						c-0.8,0.8-1.6,0.8-2.4,1.6c0,0.8-0.8,1.6-0.8,2.4c-0.8,0-1.6,0.8-2.4,0.8c-1.6,4-2.4,8-4,11.3c-0.8,0-0.8-0.8-1.6-0.8
						c-0.8,0.8-1.6,0.8-2.4,1.6c0,0.8-0.8,1.6-0.8,1.6c-0.8,0-1.6-0.8-1.6-0.8c0.8,0.8,1.6,1.6,2.4,2.4c0,1.6-0.8,2.4-0.8,4
						c-0.8,0-1.6,0-2.4,0c0,0.8,0.8,2.4,0.8,3.2c-2.4,1.6-4.8,3.2-5.6,6.4c-1.6,1.6-3.2,3.2-4,4.8c-3.2,0-4,2.4-2.4,4
						c-0.8-0.8-1.6-1.6-3.2-2.4c0,0.8,0.8,1.6,0.8,2.4c0,0-0.8,0.8-0.8,1.6c-0.8,0-1.6,0-2.4,0c0.8,0.8,0.8,0.8,1.6,1.6
						c-1.6,0.8-2.4,2.4-3.2,3.2c0,0-0.8,0-1.6,0c0,0-0.8,0.8-1.6,1.6c0.8,0,1.6,0,2.4,0c0,0.8,0,1.6,0,2.4c-1.6,0-3.2-0.8-4-1.6
						c0,0.8,0,1.6,0,1.6c0.8,0,1.6-0.8,2.4-0.8c-0.8,1.6-2.4,3.2-3.2,4.8c-0.8,0-0.8-0.8-1.6-0.8c-0.8,0.8-1.6,1.6-2.4,2.4
						c-0.8,0-1.6,0-2.4,0c-2.4,1.6-5.6,2.4-8.8,3.2c0,0.8,0.8,0.8,0.8,1.6c-0.8,0.8-1.6,1.6-2.4,1.6c0,0-0.8-0.8-1.6-0.8
						c-0.8,0-2.4,0-3.2,0c0.8,0.8,2.4,2.4,3.2,3.2c-0.8,0-2.4,0.8-3.2,0.8c0.8,0.8,2.4,1.6,3.2,2.4c-0.8,2.4,0,4.8,0,8
						c-0.8,0.8-1.6,1.6-2.4,1.6c0.8,0,2.4,0,3.2,0c0,0-0.8,0.8-1.6,1.6c0.8,0.8,0.8,0.8,1.6,1.6c0,0.8,0,1.6,0,1.6
						c1.6,1.6,3.2,3.2,4.8,4.8c5.6,1.6,6.4,2.4,6.4,2.4s-0.8,0.8-0.8,1.6c0.8,0,1.6-0.8,1.6-0.8c0.8,0.8,1.6,2.4,2.4,3.2
						c0,0.8,0,1.6,0,1.6c0.8,0,1.6-0.8,1.6-1.6c0.8,0.8,0.8,1.6,1.6,2.4c-0.8,0.8-2.4,0.8-3.2,1.6c1.6,0,2.4,0,4-0.8
						c0.8,1.6,2.4,2.4,3.2,4c0.8,0,0.8-0.8,1.6-0.8c1.6,1.6,2.4,3.2,4,5.6c0.8,0,1.6,0,2.4,0c0,0.8,0,1.6,0,1.6s0.8-0.8,1.6-0.8
						c0.8,0.8,1.6,2.4,2.4,3.2c0,0,0.8,0,1.6,0c0.8,0.8,1.6,1.6,1.6,1.6s0,0.8,0,1.6c2.4,2.4,5.6,4.8,5.6,8l0.8-0.8
						c0.8,3.2,3.2,6.4,4,9.7c0,0-0.8,0.8-1.6,1.6c0.8,2.4,0,4.8,0,7.2c-0.8,0.8-1.6,0.8-2.4,1.6c0.8,0,1.6,0,2.4,0
						c-0.8,1.6-0.8,2.4,0,4c0,0.8-0.8,1.6-0.8,2.4c0.8,0,1.6-0.8,1.6-0.8c0,0.8,0,1.6,0,2.4c0,0-0.8,0.8-1.6,0.8
						c-0.8,0-1.6-0.8-1.6-1.6c0,0.8,0.8,1.6,0.8,3.2c-0.8,0.8-0.8,0.8-1.6,1.6c0,0.8,0,1.6,0,1.6c-3.2,0.8-7.2,4-9.7,0.8
						c-0.8,0-1.6,0-2.4,0c-0.8-1.6-2.4-2.4-4-2.4c0,0-0.8-0.8-0.8-1.6c-0.8,0-1.6,0.8-1.6,0.8c0-0.8,0-1.6,0-1.6
						c-0.8,0-2.4,0.8-3.2,0.8c0-0.8-0.8-1.6-0.8-2.4c-0.8,0-1.6,0-2.4,0c0.8-0.8,0.8-1.6,1.6-1.6c-2.4,0-4-1.6-5.6-3.2
						c-4.8-1.6-7.2-7.2-12.9-6.4c-0.8-1.6-0.8-3.2-0.8-5.6c-0.8,0.8-1.6,0.8-2.4,1.6c0-0.8,0-1.6,0-3.2c-0.8-0.8-2.4-2.4-3.2-3.2
						c0.8,0,1.6,0,1.6,0c0,0.8,0,1.6,0,1.6c0.8,0,1.6-0.8,1.6-1.6c-0.8-0.8-1.6-0.8-2.4-1.6c0-0.8,0.8-1.6,0.8-2.4
						c-1.6-0.8-2.4-1.6-4-2.4c0-0.8,0-1.6,0-3.2c-0.8,0-1.6,0-2.4,0c-0.8-0.8-1.6-2.4-3.2-3.2l-0.8,0.8c0-0.8,0-1.6,0-1.6
						c-0.8,0-1.6,0-1.6,0c-0.8-0.8-1.6-1.6-1.6-2.4c-0.8,0-1.6,0-2.4,0c-0.8-0.8-2.4-1.6-3.2-3.2c-0.8,0-1.6,0-2.4,0
						c0-0.8,0-2.4,0-3.2c-0.8,0-2.4,0.8-4,0.8c-0.8,0.8-1.6,1.6-2.4,2.4c-0.8,0-1.6,0-1.6,0s-0.8,0.8-1.6,1.6c-0.8,0-2.4,0-3.2,0
						c-0.8,0.8-0.8,1.6-0.8,1.6c-4,3.2-8,5.6-12.1,8c0,2.4,0,4.8,0,7.2c0.8,0.8,1.6,1.6,2.4,2.4c-0.8,0-1.6,0.8-1.6,1.6
						c-3.2,0-2.4,0-2.4,0.8l-0.8,0.8c0,0.8,0,2.4,0.8,3.2c0,0,0.8,0.8,1.6,1.6c0,4-3.2,6.4-2.4,10.5c-0.8,1.6-0.8,3.2-1.6,4.8
						c-0.8,0.8-1.6,1.6-2.4,2.4c-0.8-0.8-2.4-0.8-3.2-1.6c-0.8,0.8-0.8,2.4-0.8,3.2c-2.4,0-4.8-0.8-7.2-1.6c0,0,0.8,0.8,0.8,1.6
						c-0.8,0-1.6,0-3.2,0.8c-0.8,0-1.6-0.8-2.4-0.8c0,0.8,0.8,1.6,1.6,1.6c-1.6-0.8-3.2-0.8-4.8-1.6c-3.2,0.8-6.4-2.4-8.8-4
						c0,0-0.8,0-1.6,0c-0.8-0.8-1.6-1.6-2.4-1.6c-0.8-1.6-2.4-4-4-5.6l0.8-0.8c-0.8-1.6-0.8-2.4-1.6-4c0.8,0,1.6,0,1.6,0
						c-0.8-0.8-1.6-1.6-2.4-2.4c0-0.8-0.8-2.4-0.8-3.2c0.8,0.8,1.6,0.8,2.4,1.6c-0.8-2.4-0.8-4.8-2.4-7.2c0.8-1.6,0.8-2.4,1.6-4
						c-0.8-0.8-0.8-1.6-1.6-2.4c1.6-2.4,1.6-4.8,3.2-7.2c-0.8-3.2-0.8-7.2,0.8-9.7l-0.8-0.8c0.8-2.4,1.6-4.8,3.2-6.4
						c-0.8,0-1.6,0-2.4-0.8c0.8-0.8,1.6-0.8,1.6-1.6l-0.8-0.8c0.8-1.6,1.6-2.4,2.4-3.2c0-1.6,0-2.4,0-4c0.8-0.8,1.6-1.6,2.4-2.4
						c0,0-0.8-0.8-0.8-1.6c0.8-1.6,0.8-3.2,1.6-4.8c-3.2-0.8-0.8-4,0.8-4.8c-0.8-0.8-1.6-1.6-2.4-3.2l0.8-0.8c0,0-0.8-0.8-0.8-1.6
						c0.8,0,1.6-0.8,2.4-0.8c0-1.6,0-2.4,0.8-4c-0.8-0.8-0.8-0.8-1.6-1.6c0.8-0.8,1.6-1.6,2.4-2.4c-0.8-1.6-0.8-2.4,0.8-2.4
						c0-2.4,0-5.6,0-8c0.8,0,1.6-0.8,1.6-1.6c-1.6-4.8,0.8-9.7,1.6-14.5h0.8c0-1.6-0.8-3.2-0.8-4.8c0.8,0,2.4,0,2.4,0
						c0-0.8-0.8-1.6-0.8-2.4c0.8-1.6,0.8-3.2,0.8-4.8c0.8-0.8,1.6-1.6,2.4-2.4c0-1.6-0.8-3.2-1.6-4c0-0.8,0-1.6,0.8-2.4
						c0,0,0.8-0.8,1.6-0.8c0.8-4,1.6-8,3.2-11.3l-0.8-0.8c0.8-2.4,0.8-4,1.6-6.4c0-1.6-0.8-3.2,1.6-4c0-0.8,0-1.6,0-2.4
						c0.8-0.8,0.8-0.8,1.6-1.6c-0.8-1.6-0.8-3.2,0-4.8l-0.8-0.8c0,0,0.8-0.8,1.6-1.6c0,0-0.8-0.8-0.8-1.6c0.8,0,1.6-0.8,2.4-0.8
						c0.8-1.6,0.8-4,0-5.6c0,0,0.8,0,1.6,0c-1.6-4.8,1.6-9.7,3.2-13.7c0-1.6-0.8-3.2-0.8-4.8c0.8-0.8,1.6-2.4,2.4-3.2
						c0,0-0.8-0.8-0.8-1.6c0.8,0,1.6,0,1.6,0c-0.8-1.6-0.8-3.2-0.8-5.6c0,0,0.8,0,1.6,0c0-0.8-0.8-1.6-0.8-2.4c0.8,0,1.6,0,1.6,0
						c0-0.8,0.8-1.6,0.8-1.6c-0.8,0-1.6,0-3.2,0.8c0.8-0.8,2.4-1.6,3.2-2.4c-0.8,0-1.6,0-1.6,0c0-1.6,0.8-4,0.8-5.6
						c0.8,0,1.6-0.8,1.6-0.8c-0.8,0-2.4,0-3.2,0c0.8-4,1.6-8.8,2.4-13.7c0.8-0.8,1.6-0.8,2.4-1.6c-0.8-0.8-4-2.4-0.8-3.2
						c2.4-0.8,0.8-2.4,0-3.2c0.8-1.6,1.6-4,4-5.6c-0.8-0.8-0.8-0.8-1.6-1.6c0-0.8,0.8-1.6,1.6-2.4c0,0-0.8-0.8-0.8-1.6
						c0.8-0.8,0.8-0.8,1.6-1.6c0-0.8,0-1.6-0.8-3.2c3.2,0,4-0.8,4-1.6s-0.8-1.6-0.8-1.6l0.8-0.8c-0.8-0.8-0.8-0.8-1.6-1.6
						c1.6-2.4,2.4-4,3.2-4.8c-0.8-0.8-0.8-0.8-1.6-1.6c0-0.8,0.8-0.8,0.8-1.6c0.8-0.8,1.6-0.8,2.4-1.6c0-2.4,1.6-4,2.4-6.4
						c1.6,0,2.4,0.8,2.4,1.6c0-0.8,0.8-0.8,0.8-1.6C168.9,24.9,168.9,24.1,168.1,22.5z M197.1,57.1c-0.8,0-2.4,0-2.4,0.8
						C194.7,59.5,198.7,57.9,197.1,57.1z M193.9,63.6c-0.8,0.8,0.8,2.4,1.6,1.6C196.3,64.4,194.7,62.7,193.9,63.6z M156.1,74
						c0.8,0.8,3.2,0.8,4,1.6C160.1,73.2,157.7,73.2,156.1,74z M193.9,79.6c-0.8,0.8-3.2,1.6-3.2,2.4
						C192.3,82.9,194.7,80.4,193.9,79.6z M159.3,83.7c0-0.8,0.8-2.4,0-3.2C157.7,80.4,157.7,84.5,159.3,83.7z M155.3,86.9
						c0,0.8,1.6,1.6,2.4,0.8C157.7,86.1,156.1,86.1,155.3,86.9z M151.2,107.8c0.8,0,1.6,0,1.6-1.6
						C151.2,106.2,151.2,106.2,151.2,107.8z M149.6,115.8c0.8,0.8,2.4,0.8,2.4-0.8C152.8,113.4,148.8,114.2,149.6,115.8z
						 M164.1,147.2c0.8,0,1.6,0,1.6-1.6C164.1,145.6,163.3,146.4,164.1,147.2z M141.6,149.6c-0.8,0.8,0,2.4,0.8,1.6
						C143.2,151.2,143.2,148.8,141.6,149.6z M164.9,159.3c0.8-0.8,1.6-2.4,0-2.4C163.3,156.1,163.3,159.3,164.9,159.3z M131.9,187.4
						c0.8,0,1.6,0,1.6-1.6C131.9,185.8,131.9,185.8,131.9,187.4z M230.1,262.2c0.8,1.6,0.8,2.4,1.6,4
						C233.3,263.9,231.7,262.2,230.1,262.2z M230.9,267.1c-0.8,1.6,3.2,1.6,2.4,0C232.5,267.1,231.7,267.1,230.9,267.1z
						 M239.7,312.1v0.8c1.6,0,3.2-0.8,4.8-0.8c0,0,0.8-0.8,1.6-1.6C243.7,311.3,242.1,312.1,239.7,312.1z"/>
				</g>
				<g>
					<path fill="#FFFFFF" d="M512.4,111c1.6-0.8,3.2-1.6,4.8-2.4c0,0-0.8,0.8-1.6,1.6c1.6,0,3.2,0.8,4.8,1.6
						c0.8-0.8,0.8-0.8,1.6-1.6c0.8,0,1.6,0,2.4,0.8c-0.8,1.6-2.4,2.4-4,2.4c0.8,0.8,0.8,1.6,1.6,3.2c0.8,0,1.6,0,2.4,0
						c0-0.8-0.8-1.6-0.8-2.4c0.8,0,1.6-0.8,2.4-0.8c0.8,0.8,2.4,2.4,3.2,3.2c0-0.8,0-1.6,0-2.4c0.8,0,1.6,0,2.4,0
						c0.8,0.8,1.6,1.6,2.4,2.4c0.8,0,2.4,0.8,2.4,1.6c0.8,0,1.6,0,1.6,0c1.6,1.6,3.2,2.4,5.6,3.2c0,0.8-0.8,1.6-1.6,2.4
						c0.8,0,1.6-0.8,2.4-0.8c1.6,1.6,2.4,4,4.8,4.8c0-4,4.8-4,7.2-3.2c0,0-0.8,0.8-1.6,1.6c2.4,0,4,0.8,4,3.2c0,0,0.8,0.8,0.8,1.6
						c0,2.4,3.2,6.4,0,7.2c0.8,0,2.4-0.8,3.2-0.8c0,0.8,0.8,1.6,0.8,2.4c-1.6,1.6-0.8,3.2,0.8,4.8c-2.4,0.8-3.2,3.2,0,4
						c0.8,3.2,0.8,6.4,0.8,9.7c-0.8,0-1.6,0.8-2.4,1.6l0.8,0.8c-0.8,2.4-0.8,4.8-0.8,6.4c0,2.4-0.8,4.8-1.6,7.2l0.8,0.8l-0.8,0.8
						c0.8,0,1.6,0.8,1.6,1.6c0,1.6-0.8,2.4-0.8,4l0.8,0.8c-0.8,0.8-0.8,1.6-1.6,2.4c0,0.8,0.8,0.8,0.8,1.6c-0.8,0-1.6,0.8-1.6,0.8
						c1.6,3.2,1.6,6.4,0.8,9.7c-1.6,0.8-1.6,1.6-1.6,3.2c0.8-0.8,1.6-1.6,1.6-2.4c0,0.8,0,2.4,0,3.2h0.8c0,1.6,0,2.4,0,4
						c-0.8,0-2.4,0-3.2,0c0.8,0,1.6,0.8,1.6,0.8c0,0.8,0,1.6,0,1.6s0.8,0,1.6,0c-0.8,0.8-0.8,2.4-1.6,3.2l-1.6-0.8
						c0,0.8,0.8,2.4,0.8,3.2c0,0.8-0.8,1.6-0.8,1.6c0.8-0.8,1.6-0.8,3.2-1.6c0-0.8-0.8-1.6-1.6-1.6c0.8,0,1.6,0,1.6,0
						c0,2.4-0.8,4.8-4,4.8c1.6,0.8,3.2,1.6,4.8,1.6c-0.8,0.8-0.8,1.6-1.6,2.4c0.8,3.2,1.6,5.6,0.8,8.8c-0.8-0.8-1.6-0.8-2.4-1.6
						c0,1.6,0.8,2.4,0.8,4c0,0,0.8,0.8,0.8,1.6c0.8,3.2,0,7.2-0.8,10.5c0.8,1.6,1.6,4,1.6,5.6c-0.8,0.8-0.8,1.6-1.6,2.4
						c2.4,0.8,1.6,3.2,0.8,4.8c0.8,1.6,2.4,3.2,4,4l-0.8,0.8c0.8,0.8,0.8,1.6,1.6,2.4c0.8-0.8,1.6-1.6,2.4-2.4c0,0.8,0,2.4,0.8,3.2
						c0.8,0,0.8-0.8,1.6-0.8c1.6,0.8,3.2,1.6,4,2.4c0,0.8-0.8,0.8-0.8,1.6c0.8,1.6,3.2,3.2,4.8,4.8c1.6,2.4,4,4,5.6,6.4
						c0.8,0.8,2.4,2.4,3.2,3.2c0.8,0,1.6,0,3.2,0c0,1.6,0.8,3.2,2.4,4.8l-0.8,0.8c0.8,0.8,1.6,1.6,3.2,1.6c-0.8,4-2.4,8-4.8,11.3
						c-0.8,0.8,0,2.4,0,4c-0.8,0.8-1.6,1.6-3.2,1.6c0,0,0,0.8,0,1.6c-1.6,1.6-2.4,3.2-4,4c-4.8,0-8.8-2.4-13.7-2.4l-0.8,0.8
						c-3.2-3.2-6.4-5.6-10.5-8.8c0,0-0.8,0-1.6,0c-1.6-3.2-5.6-4-6.4-8c0-0.8,0.8-0.8,0.8-1.6c-0.8-0.8-1.6-1.6-2.4-2.4l0.8-0.8
						c-0.8-0.8-0.8-0.8-1.6-1.6c-0.8-1.6-0.8-3.2-1.6-4.8l0.8-0.8c-0.8-0.8-1.6-1.6-1.6-1.6s0.8-0.8,1.6-1.6
						c-0.8-0.8-1.6-1.6-1.6-1.6c0-0.8,0.8-2.4,0.8-3.2c0,0-0.8-0.8-0.8-1.6c-0.8,0-1.6-0.8-2.4-0.8c0.8-5.6-1.6-10.5-0.8-15.3
						c-2.4-1.6-0.8-4-1.6-6.4c0,0,0-0.8,0.8-0.8c-0.8-1.6-1.6-3.2,0.8-4c-1.6-0.8-2.4-2.4-1.6-4.8c0-0.8-0.8-0.8-0.8-1.6
						c1.6,0,2.4,0.8,4,0.8c-0.8-1.6-1.6-2.4-2.4-3.2c-0.8-1.6-0.8-3.2,0-4.8c0-0.8-0.8-1.6-0.8-1.6c0.8-1.6,0.8-3.2,0.8-4.8
						c-0.8-0.8-0.8-1.6-1.6-2.4c0,0,0.8-0.8,0.8-1.6c0,0-0.8-0.8-1.6-1.6l0.8-0.8c-0.8-0.8-1.6-1.6-2.4-2.4c0-0.8,0-1.6,0-2.4
						c-1.6,0-2.4,0-4,0c0.8,1.6,0.8,3.2,0.8,4.8c-0.8,0-1.6,0.8-1.6,1.6c0,0.8,0.8,2.4,0.8,3.2c-0.8,0-1.6,0.8-2.4,0.8
						c-0.8,1.6-1.6,4-1.6,5.6c-0.8-0.8-0.8-1.6-1.6-1.6l-0.8,0.8c0.8,0.8,1.6,1.6,2.4,2.4c-0.8,0.8-1.6,2.4-2.4,3.2
						c-0.8,0-1.6,0-3.2,0c0,1.6,0.8,3.2,0.8,4.8c0,0,1.6-0.8,1.6-1.6c-0.8,0.8-0.8,1.6-1.6,2.4c-0.8,0-1.6,0-1.6,0s0,0.8,0,1.6
						c0.8,0,2.4,0,3.2,0c0,0.8,0,1.6,0,1.6c-0.8,0-1.6-0.8-2.4-0.8c0,0.8,0,1.6,0,1.6c-0.8,0.8-1.6,1.6-1.6,1.6
						c0.8,0.8,0.8,0.8,1.6,1.6c-0.8,0.8-2.4,1.6-3.2,3.2l0.8,0.8c-0.8,0.8-1.6,2.4-2.4,3.2c-0.8-0.8-1.6-0.8-1.6-0.8
						c0,0.8,0.8,2.4,0.8,3.2c-0.8,0-1.6,0-2.4,0c0,0.8-0.8,1.6-0.8,2.4c0,0,0.8,0.8,1.6,0.8c-0.8,1.6-2.4,4-2.4,6.4
						c-0.8,0.8-1.6,1.6-2.4,2.4l-0.8-0.8c-0.8,0.8-0.8,1.6-1.6,3.2c0.8,0.8,0.8,0.8,1.6,1.6c-1.6,1.6-2.4,3.2-4,4c0,0.8,0,1.6,0,1.6
						c-0.8,0-1.6,0-1.6,0c0,0.8-0.8,1.6-0.8,1.6l0.8,0.8c-0.8,0.8-1.6,2.4-2.4,3.2c-0.8,0-1.6,0-2.4,0c-2.4,3.2-2.4,4-3.2,4.8
						c0,0,0,0.8,0,1.6c-1.6,0.8-3.2,1.6-4.8,1.6c0,0.8,0.8,2.4,0.8,3.2c-0.8,0-1.6,0-1.6,0c0-0.8,0-1.6,0-1.6s-0.8,0.8-1.6,0.8
						c0,0.8,0.8,1.6,0.8,2.4c-0.8,0-2.4,0-3.2,0c0,0,0,0.8,0,1.6c0.8,0,1.6,0,1.6,0c-1.6,1.6-3.2,4-4.8,5.6c0,0-0.8,0-1.6,0
						c-0.8,2.4-3.2,2.4-4.8,3.2c0,0.8,0,1.6,0,1.6c-2.4,0-4.8,0-7.2,1.6c-2.4-0.8-4.8-1.6-7.2-1.6c-0.8-0.8-1.6-1.6-3.2-2.4
						l-0.8,0.8c-1.6-0.8-2.4-0.8-4-0.8c0-0.8,0-2.4,0-3.2c-1.6-0.8-2.4-2.4-4-3.2c0.8,1.6,2.4,3.2,4,4.8c-1.6-0.8-2.4-1.6-4-2.4
						c-1.6-2.4-4-5.6-6.4-7.2c0.8-1.6,1.6-2.4,2.4-4c-1.6,0.8-2.4,1.6-4,2.4c0-0.8,0.8-1.6,0.8-2.4c-0.8,0-1.6,0-1.6,0
						s-0.8-0.8-1.6-1.6c0.8,0,1.6,0,2.4,0c-0.8-0.8-1.6-1.6-1.6-2.4c0-0.8,0.8-1.6,0.8-1.6c-1.6,0.8-2.4,1.6-4,2.4
						c0-0.8,0-1.6,0-1.6s0.8,0,1.6,0c-1.6-2.4-1.6-5.6-0.8-8c-0.8-0.8-1.6-0.8-3.2-1.6c0-0.8-0.8-1.6-0.8-1.6l0.8-0.8
						c-0.8-0.8-0.8-1.6-1.6-2.4c0-0.8,0.8-0.8,0.8-0.8c-2.4-1.6-1.6-4.8-2.4-6.4l0.8-0.8c-0.8,0-1.6-0.8-1.6-1.6
						c0.8-0.8,0.8-0.8,1.6-0.8c0-0.8-0.8-1.6-0.8-2.4c0,0-0.8-0.8-1.6-1.6c0-0.8,0-1.6,0-2.4c-2.4-1.6-0.8-4.8-0.8-6.4
						c-0.8-0.8-1.6-1.6-1.6-2.4c3.2,0,1.6-2.4,0.8-4.8c1.6,0.8,3.2,1.6,5.6,1.6c0-0.8,0-1.6,0-1.6c-0.8,0-1.6,0.8-2.4,0.8
						c-0.8-1.6-2.4-3.2-3.2-4.8c1.6-0.8,3.2-1.6,5.6-2.4c-0.8-0.8-1.6-1.6-1.6-2.4c-2.4,0-3.2-2.4-2.4-4c0,0-0.8-0.8-0.8-1.6
						c0.8,0,1.6,0,1.6,0c0,0.8,0,1.6,0,1.6c1.6-0.8,2.4-1.6,4-2.4c-0.8,0-1.6,0.8-2.4,0.8c0,0-0.8-0.8-0.8-1.6
						c0.8,0,2.4-0.8,3.2-0.8c0,0,0-0.8,0-1.6c-0.8,0-1.6,0-2.4,0c0.8-2.4-0.8-4.8,0.8-7.2c-0.8,0-1.6,0-1.6,0
						c0.8-0.8,0.8-0.8,1.6-1.6c0.8-2.4,1.6-4.8,0-7.2c1.6,0.8,2.4,0.8,3.2,1.6c-0.8,0-1.6-0.8-1.6-1.6c0,0,0-0.8,0-1.6
						c0,0,0.8-0.8,1.6-1.6c0,0,0.8,0.8,1.6,1.6c0,0,0-0.8,0-1.6c-0.8,0-2.4-0.8-3.2-0.8c0.8-0.8,0.8-0.8,1.6-1.6
						c0-2.4,0.8-4.8,2.4-6.4c0-0.8-0.8-1.6-0.8-1.6c0.8-0.8,2.4-1.6,4-2.4c0-0.8-0.8-0.8-0.8-1.6c1.6,0,1.6-1.6,0.8-2.4
						c0.8,0,0.8,0,1.6,0c0-0.8,0-0.8-0.8-1.6c0-1.6,0.8-3.2,0.8-4.8c0.8-0.8,2.4-2.4,3.2-3.2c-0.8,0-2.4,0.8-3.2,0.8
						c0.8-0.8,1.6-1.6,2.4-2.4l-0.8-0.8c0.8-0.8,0.8-0.8,1.6-1.6c0.8-1.6,0.8-3.2,1.6-4c0.8,0.8,1.6,1.6,2.4,2.4
						c0-0.8,0-1.6,0.8-2.4c-3.2-1.6-4-2.4-4.8-2.4c-0.8-4,1.6-6.4,4-8.8c-0.8-1.6-0.8-3.2-0.8-4.8c1.6,0.8,3.2,2.4,4,4
						c0.8-0.8,2.4-1.6,3.2-1.6c-0.8,0-1.6,0.8-3.2,0.8c0-0.8,0-1.6,0-2.4c1.6,0.8,3.2,0.8,4.8,0.8c0-0.8-0.8-1.6-0.8-2.4
						c0,0-0.8,0.8-1.6,0.8c-0.8-0.8-1.6-0.8-2.4-0.8c0.8-0.8,0.8-1.6,1.6-2.4l-0.8-0.8c0.8-0.8,0.8-1.6,1.6-2.4
						c0.8,0.8,1.6,1.6,2.4,2.4c0-0.8-0.8-1.6-0.8-1.6c0.8-1.6,0.8-3.2,0.8-4c0,0,0.8-0.8,1.6-1.6l-0.8-0.8c0.8-0.8,1.6-1.6,3.2-2.4
						c0,0.8,0,1.6,0.8,2.4c0.8-0.8,0.8-1.6,1.6-1.6c-0.8-0.8-1.6-1.6-2.4-2.4c1.6,0,2.4,0,4,0c0-0.8-0.8-1.6-1.6-1.6
						c0.8-0.8,2.4-1.6,3.2-2.4c0-0.8,0.8-1.6,0.8-2.4c0.8,1.6,1.6,1.6,3.2,2.4c-0.8-1.6-0.8-3.2,0-4.8c0.8,0.8,2.4,2.4,3.2,3.2
						c-0.8-1.6-1.6-2.4-2.4-4c2.4-2.4,5.6-4,9.7-4.8l0.8,0.8c0.8-1.6,1.6-2.4,1.6-4c2.4,0.8,4.8,0.8,6.4,1.6
						c-0.8-0.8-0.8-1.6-1.6-2.4c-0.8,0-2.4,0-3.2,0l-0.8-0.8c0.8-0.8,2.4-1.6,3.2-2.4c0,0.8,0,1.6,0,1.6c0.8,0,1.6,0,2.4,0
						c0-0.8-0.8-1.6-0.8-2.4c0.8,0,1.6,0,2.4,0c0.8,0.8,0.8,1.6,1.6,2.4c0-0.8,0-1.6,0-2.4c0.8-0.8,1.6-1.6,2.4-1.6
						c0,0.8,0,1.6,0,1.6h0.8C502,107.8,509.2,109.4,512.4,111z M508.4,112.6c0.8,0,1.6,0,1.6-1.6C509.2,111,508.4,111,508.4,112.6z
						 M502.8,113.4c0.8,0,1.6-1.6,0.8-2.4C502.8,111,502,113.4,502.8,113.4z M518.1,112.6c-0.8,0-0.8,2.4,0,2.4
						C518.9,115,518.9,113.4,518.1,112.6z M470.6,131.1c0.8,0.8,0.8,1.6,1.6,3.2c0.8-0.8,1.6-0.8,2.4-1.6
						C473,131.9,472.2,131.1,470.6,131.1z M462.5,144.8c0.8,0.8,0.8,0.8,1.6,1.6c0.8-0.8,2.4-1.6,3.2-2.4
						C465.8,144,464.2,144,462.5,144.8z M510,154.5c0.8,0.8,1.6,2.4,2.4,3.2c1.6-1.6,3.2-2.4,4.8-4c-0.8,0-2.4,0.8-3.2,0.8l-0.8-0.8
						C511.6,153.6,510.8,154.5,510,154.5z M518.9,155.3c0,0.8,0,1.6,0,1.6c-0.8,0-1.6,0-2.4,0c-1.6,1.6-3.2,1.6-4,2.4l-0.8-0.8
						c0,0.8-0.8,1.6-1.6,1.6s-1.6-0.8-1.6-1.6c-0.8,2.4-3.2,1.6-5.6,2.4c0.8,0.8,1.6,0.8,2.4,1.6c-0.8,0.8-1.6,1.6-2.4,2.4H502
						c-2.4,1.6-4.8,1.6-7.2,1.6c0,1.6-0.8,3.2-0.8,4c-0.8,0-1.6,0-1.6,0c-0.8,0.8-1.6,1.6-2.4,1.6c0-0.8-0.8-1.6-1.6-2.4
						c0,0.8,0,2.4,0,3.2c-0.8,0-1.6,0-1.6,0c-0.8,0.8-1.6,0.8-1.6,1.6c0,0.8,0,1.6,0,1.6c-0.8-0.8-1.6-0.8-2.4-0.8
						c0.8,2.4,0.8,4,0.8,6.4c-0.8,0-1.6-0.8-1.6-0.8c-0.8,1.6-0.8,3.2-1.6,4.8c0,0,0.8,0.8,1.6,1.6c-0.8,1.6-2.4,2.4-4,4
						c-1.6,0-2.4,0-4,0c0.8-0.8,1.6-1.6,1.6-2.4s0-1.6,0-2.4c0,0-0.8,0.8-1.6,0.8c0-0.8,0-2.4,0-3.2c-0.8,1.6-1.6,3.2-2.4,4.8
						c0.8-0.8,2.4-1.6,3.2-1.6c-0.8,0.8-1.6,1.6-2.4,2.4c0.8,0.8,1.6,1.6,2.4,1.6c0,0.8,0.8,1.6,0.8,3.2c-0.8-0.8-1.6-0.8-3.2-1.6
						c0,0.8,0.8,1.6,1.6,1.6c-1.6,0.8-2.4,2.4-4,3.2c-0.8,1.6-2.4,3.2-4,4.8c0.8,0,1.6-0.8,2.4-0.8s1.6,0.8,2.4,0.8
						c-0.8,0.8-0.8,0.8-1.6,1.6c0,0.8,0,1.6,0,2.4c-0.8,0-1.6-0.8-1.6-0.8c0.8,0.8,1.6,1.6,2.4,2.4c-0.8,1.6-1.6,2.4-2.4,4
						c0.8,0,1.6,0,1.6,0c-0.8,0.8-0.8,2.4-1.6,3.2c-1.6,0.8-1.6,2.4-0.8,4c-0.8,0.8-1.6,1.6-2.4,1.6c0.8,0.8,1.6,1.6,1.6,1.6
						c-0.8,0-2.4,0-3.2,0c0,0,0.8,0.8,0.8,1.6c0,0-0.8,0-1.6,0c0.8,1.6-0.8,2.4-1.6,4c0.8,0,1.6-0.8,2.4-1.6
						c-0.8,0.8-0.8,2.4-1.6,3.2c-0.8,0-1.6-0.8-1.6-0.8c0,0.8,0,1.6,0,3.2c0.8,0,1.6,0.8,1.6,1.6c-0.8,1.6-1.6,3.2-1.6,4.8
						c0.8,0.8,1.6,0.8,2.4,1.6c-3.2,0.8,0,4.8-2.4,7.2c-0.8,0.8-0.8,0.8-1.6,1.6c0.8,0.8,2.4,0.8,3.2,1.6c0,0.8,0,1.6,0,1.6
						c0.8,0.8,1.6,0.8,2.4,1.6c0,0,0,0.8,0,1.6c0.8,0.8,1.6,0.8,2.4,1.6c0.8,0,1.6,0.8,2.4,0.8c0,0,0.8,0,0.8-0.8
						c0.8,0,2.4,0.8,3.2,0.8c0,0.8,0,1.6,0,2.4c1.6-0.8,3.2-0.8,4.8-1.6c1.6,0,3.2,0,4.8,0c-0.8,0.8-0.8,1.6-1.6,2.4
						c0.8-0.8,1.6-1.6,3.2-2.4c-0.8-0.8-1.6-1.6-1.6-2.4c1.6-0.8,1.6-1.6,2.4-3.2c0.8,0,1.6,0,1.6,0c0-0.8,0.8-1.6,1.6-2.4
						c0,0,0.8,0,1.6,0c2.4-3.2,6.4-4.8,8-8c0.8,0,1.6,0,1.6,0c0-1.6,0.8-2.4,1.6-4c2.4-2.4,2.4-6.4,5.6-8c0-0.8,0-1.6,0-1.6
						c0.8,0,1.6-0.8,2.4-1.6c0-0.8-0.8-0.8-0.8-1.6c2.4-0.8,4-2.4,2.4-4.8c0.8-0.8,1.6-1.6,3.2-2.4c-0.8,0-1.6,0.8-2.4,0.8
						c0.8-0.8,1.6-1.6,3.2-2.4c0-0.8-0.8-1.6-1.6-1.6c0.8-0.8,1.6-1.6,2.4-2.4l-0.8-0.8c0.8-0.8,1.6-1.6,2.4-2.4
						c0.8,0,1.6,0.8,1.6,1.6c0-0.8-0.8-1.6-0.8-2.4c0.8-1.6,1.6-3.2,1.6-4c1.6-0.8,1.6-1.6,1.6-3.2c0,0,0.8-0.8,1.6-1.6
						c-1.6-4,0-7.2,1.6-11.3c0-2.4-0.8-4.8,0-6.4l-0.8-0.8l0.8-0.8c-0.8-3.2-0.8-7.2,2.4-8.8c-0.8-0.8-0.8-0.8-1.6-1.6
						c0-1.6,0-4-0.8-5.6l0.8-0.8c-0.8-3.2-1.6-5.6-2.4-8.8l-0.8,0.8C521.3,156.9,519.7,156.1,518.9,155.3z M451.3,162.5
						c-0.8,1.6,2.4,1.6,1.6,0C452.9,162.5,452.1,162.5,451.3,162.5z M528.5,173c0.8,0,0.8-1.6,0.8-2.4
						C527.7,169.7,526.9,173,528.5,173z M470.6,196.3c-0.8,0-1.6,1.6-0.8,1.6C471.4,197.9,472.2,196.3,470.6,196.3z M538.2,200.3
						c0.8,1.6,0.8,2.4,1.6,4c-0.8,0-1.6-0.8-1.6-1.6c0,0.8-0.8,2.4-0.8,3.2c0.8,0.8,1.6,1.6,2.4,2.4c0,0,0.8-0.8,1.6-0.8
						c0,0-0.8-0.8-0.8-1.6c0.8,0,1.6-0.8,1.6-0.8C540.6,203.5,539.8,201.9,538.2,200.3z M535.8,210.8c0.8,0,1.6,0.8,2.4,0.8
						c0,0,0.8-0.8,0.8-1.6c0-0.8-0.8-1.6-0.8-1.6C537.4,210,536.6,210.8,535.8,210.8z M437.6,272.7c-0.8,0.8,0.8,3.2,1.6,2.4
						C440,274.3,439.2,271.9,437.6,272.7z"/>
				</g>
				<g>
					<path fill="#FFFFFF" d="M57.9,99.7c0.8,0,1.6,0,2.4,0c4,0,8,0,12.1,0c1.6,2.4,4,3.2,6.4,4.8c0,0.8,0,1.6,0,1.6
						c1.6,1.6,4,4,4,6.4c0.8,0,1.6,0,1.6,0s0.8,0.8,0.8,1.6c-0.8,0.8-0.8,2.4-1.6,3.2c0.8,2.4,0,5.6,0,8.8c0,1.6,0,3.2,0,4.8
						c0.8,0.8,1.6,0.8,1.6,1.6c-0.8,0-1.6,0-1.6,0c0,1.6,0.8,3.2,0.8,4.8c1.6,1.6,2.4,4,3.2,6.4l-0.8,0.8c1.6,3.2-0.8,6.4-1.6,9.7
						l0.8,0.8c-2.4,2.4-4,5.6-8,4.8c-0.8-0.8-1.6-1.6-3.2-2.4c-0.8,0-2.4,0.8-3.2,0.8c-0.8-0.8-1.6-1.6-1.6-2.4
						c-0.8,0-1.6,0.8-2.4,0.8c-2.4-0.8-4-3.2-6.4-4c-3.2,0-7.2,0.8-8.8,4c0,0.8,0,1.6,0,2.4c-0.8,0-1.6,0.8-1.6,1.6
						c0.8,3.2,1.6,6.4,4,8.8c0,0,0,0.8,0,1.6c0.8,0,1.6,0.8,2.4,0.8c0,0.8,0,1.6,0,1.6c0.8,0.8,1.6,1.6,3.2,2.4c0,0.8,0,1.6,0,1.6
						c0.8,0,1.6,0.8,2.4,0.8c0,0.8,0,1.6,0,1.6c4.8,1.6,5.6,8,10.5,9.7l-0.8,0.8c0.8,0.8,1.6,0.8,2.4,1.6c0.8,0.8,1.6,2.4,2.4,3.2
						c0,0,0,0.8,0,1.6c2.4,2.4,4,5.6,7.2,8c2.4,1.6,2.4,4.8,4.8,5.6c0,0,0,0.8,0,1.6c3.2,0.8,4.8,3.2,4.8,5.6l0.8-0.8
						c0.8,0.8,1.6,1.6,1.6,2.4s0,2.4,0,3.2c0,0,0.8,0.8,1.6,1.6c0,1.6,0.8,2.4,0.8,4c0,0-0.8,0.8-0.8,1.6c0,0,0.8,0,1.6,0
						c0,3.2,0.8,5.6,1.6,8.8c0,0.8,0,2.4,0,3.2c0,2.4-0.8,4-1.6,5.6c0.8,0.8,1.6,2.4,1.6,3.2c-0.8,2.4-3.2,5.6,0,8
						c-0.8,0.8-1.6,1.6-2.4,1.6c0.8,0.8,0.8,1.6,1.6,2.4c-0.8,1.6-1.6,4-0.8,5.6c-3.2,0.8-4,2.4-3.2,4.8c-0.8,0.8-0.8,0.8-1.6,1.6
						c0,4-3.2,5.6-5.6,8c-0.8,1.6-1.6,3.2-2.4,5.6c-0.8,0.8-1.6,1.6-2.4,1.6c0,0.8-0.8,2.4-0.8,3.2c0,0,0,0.8,0.8,0.8
						c-1.6,1.6-3.2,3.2-4.8,4c-2.4,2.4-4,5.6-6.4,8c-0.8-0.8-1.6-0.8-2.4-1.6c0,0.8,0,1.6,0,2.4c-1.6,0.8-2.4,2.4-3.2,3.2
						c-1.6,1.6-4,0.8-6.4,1.6c-1.6-0.8-2.4-0.8-4-0.8c-1.6,4-6.4,4-9.7,3.2c0,0,0-0.8,0-1.6c-1.6,0.8-4,0.8-5.6,1.6
						c0-0.8-0.8-1.6-1.6-1.6c-0.8,0-1.6,0-1.6,0c0-0.8-0.8-1.6-0.8-2.4c-0.8,0-1.6,0-1.6,0c-1.6-1.6-4-3.2-5.6-4.8
						c-0.8,0-1.6,0-1.6,0c-1.6-1.6-2.4-4.8-4.8-5.6c0,0,0.8,0,0.8-0.8c-0.8-0.8-1.6-1.6-3.2-3.2c1.6-0.8,2.4-2.4,3.2-3.2
						c-0.8,0-0.8,0.8-1.6,0.8c-0.8-0.8-0.8-1.6-1.6-1.6c0-0.8,0-1.6,0-1.6c-0.8,0-1.6,0-2.4,0c-0.8-1.6-1.6-3.2-3.2-4.8
						c-0.8-1.6-1.6-2.4-3.2-3.2c0.8-0.8,1.6-2.4,2.4-3.2c-0.8-1.6-1.6-3.2-4-4c0-1.6-0.8-2.4-0.8-4c0.8,0,0.8,0.8,1.6,1.6
						c0.8-0.8,0.8-0.8,1.6-1.6c-0.8,0-2.4,0-2.4,0c0-0.8,0.8-1.6,0.8-2.4c-0.8-1.6-2.4-2.4-3.2-4c0.8,0,1.6,0.8,1.6,0.8l0.8-0.8
						c-0.8-0.8-0.8-0.8-1.6-1.6c0.8-4,1.6-8,0.8-11.3c0.8-0.8,0.8-1.6,1.6-2.4l-0.8-0.8c0.8-0.8,1.6-0.8,1.6-1.6
						c-0.8-0.8-1.6-1.6-1.6-1.6c0.8-0.8,1.6-2.4,2.4-3.2c0.8,0,1.6-0.8,2.4-0.8s1.6,0.8,2.4,0.8c0,0.8,0,1.6,0,1.6
						c1.6,0,3.2,0,4.8,0.8c0,0,0-0.8,0-1.6c0.8,0,1.6,0.8,2.4,0.8c0.8,1.6,2.4,3.2,3.2,4c0.8,0,1.6,0,2.4,0
						c-0.8,0.8-1.6,1.6-2.4,2.4c0.8,0.8,2.4,1.6,3.2,2.4c0,0.8,0,2.4,0,3.2c0.8,0,1.6,0.8,3.2,0.8c0,0.8-0.8,1.6-0.8,2.4
						c2.4,2.4,4.8,4,5.6,6.4c4.8-1.6,10.5-2.4,15.3-2.4c2.4-0.8,5.6-1.6,8-3.2c0.8,0.8,0.8,1.6,0.8,2.4c1.6-1.6,3.2-2.4,4.8-3.2
						c0.8,0,1.6,0,2.4,0c1.6-1.6,2.4-4,3.2-6.4c-0.8-2.4-0.8-5.6,0.8-8c-0.8-0.8-0.8-0.8-1.6-1.6c0.8-0.8,1.6-1.6,2.4-2.4
						c-0.8-0.8-1.6-1.6-2.4-2.4c0-0.8,0.8-1.6,0.8-2.4c0,0,0-0.8-0.8-0.8c0.8-1.6,0-4,0-5.6c-0.8,0-1.6-0.8-2.4-0.8
						c0-0.8-0.8-1.6-0.8-1.6c-0.8,0-2.4-0.8-2.4-1.6c-1.6,0-2.4,0-4,0c-0.8-0.8-1.6-2.4-1.6-3.2c-0.8,0-1.6,0-2.4,0
						c0.8,0,1.6-0.8,2.4-0.8c-3.2-0.8-5.6-2.4-7.2-4.8c0-0.8,0.8-1.6,1.6-1.6c-0.8,0-1.6,0.8-2.4,0.8c0-0.8-0.8-1.6-0.8-1.6
						c-0.8-0.8-1.6-1.6-3.2-2.4l0.8-0.8c-0.8-0.8-1.6-1.6-1.6-2.4c-1.6-0.8-4-2.4-6.4-1.6c0,0-0.8-0.8-0.8-1.6c-0.8,0-1.6,0-1.6,0
						c-0.8-1.6-2.4-3.2-3.2-4.8c-0.8,0-0.8,0.8-1.6,0.8c-2.4-4-8.8-3.2-10.5-8l-0.8,0.8c-2.4-3.2-5.6-6.4-8.8-8.8l0.8-0.8
						c0-0.8-0.8-1.6-0.8-2.4c-0.8,0-1.6,0-2.4,0c0-0.8,0.8-1.6,0.8-2.4c-0.8-0.8-1.6-0.8-2.4-1.6c0-0.8,0.8-1.6,1.6-1.6
						c-2.4-1.6-3.2-4.8-5.6-6.4c0,0,0-0.8,0-1.6c-0.8-0.8-0.8-0.8-1.6-1.6c0.8-0.8,0.8-2.4,0.8-3.2c-0.8,0.8-1.6,1.6-2.4,2.4
						c0-0.8,0-1.6,0-3.2c0,0-0.8-0.8-1.6-0.8c0.8-2.4-0.8-4.8,0.8-6.4c0,0-0.8-0.8-1.6-0.8c0-3.2,0-5.6,1.6-8.8l-0.8-0.8
						c0.8-0.8,0.8-1.6,1.6-1.6c-0.8,0-1.6-0.8-2.4-0.8c1.6-0.8,3.2-0.8,5.6-1.6c-0.8-1.6-1.6-4-1.6-5.6c0.8,0,1.6,0.8,1.6,0.8
						c0-2.4,0-2.4,0.8-3.2c0-0.8-0.8-2.4-0.8-3.2c0,0.8,0.8,1.6,0.8,2.4c0.8-0.8,1.6-1.6,2.4-2.4c0-0.8-0.8-1.6-0.8-2.4
						c0.8,0,1.6,0.8,1.6,1.6c0-0.8,0-1.6,0-1.6c0.8,0,1.6,0,1.6,0c0.8-1.6,2.4-3.2,3.2-4.8c0-2.4,1.6-4,3.2-5.6
						c0.8,0.8,0.8,0.8,1.6,1.6c-0.8-4.8,4.8-6.4,8-6.4c0.8,0,2.4,0.8,3.2,0.8c0-1.6,0.8-2.4,2.4-3.2c0-0.8-0.8-0.8-0.8-1.6
						c0.8-0.8,2.4-1.6,4-1.6c0,0,0.8-0.8,1.6-1.6c0,0,0.8,0.8,1.6,1.6c0.8-0.8,1.6-2.4,2.4-3.2c0.8,0.8,1.6,0.8,2.4,1.6
						c2.4-1.6,5.6-1.6,8,0c0-0.8,0-1.6,0-2.4c0.8,0,1.6,0,1.6,0C57.1,100.6,57.9,99.7,57.9,99.7z M83.7,143.2c0,0.8,1.6,1.6,2.4,1.6
						C86.9,143.2,84.5,142.4,83.7,143.2z M26.5,290.4c-0.8,0.8,0,2.4,0.8,2.4S27.4,289.6,26.5,290.4z M79.6,297.6
						c0.8,0,1.6-1.6,1.6-1.6C79.6,295.2,78.8,296.8,79.6,297.6z"/>
				</g>
				<g>
					<path fill="#FFFFFF" d="M287.2,159.3c0.8-1.6,1.6-3.2,3.2-1.6c0,0,0-0.8,0.8-0.8c0.8,0.8,1.6,1.6,2.4,2.4
						c0.8-0.8,0.8-0.8,1.6-1.6c0.8,0,1.6,0,1.6,0c0,0.8,0.8,1.6,0.8,2.4c2.4,0.8,5.6,1.6,8,3.2c0,0,0.8,0,1.6,0
						c0.8,1.6,2.4,3.2,3.2,4.8c0,0.8,0,1.6,0,2.4c0,0,0.8,0.8,1.6,1.6c0,0,0,0.8,0,1.6c0,0,0.8,0.8,1.6,1.6c0,0.8,0,2.4,0,3.2
						c0,0,0.8,0.8,1.6,1.6c0,0.8-0.8,0.8-0.8,1.6c-0.8,0.8-1.6,1.6-2.4,2.4c0.8,0,1.6,0,2.4,0c0,3.2,1.6,5.6,2.4,8.8
						c-0.8,0-1.6,0-2.4,0c0,0.8,0.8,2.4,0.8,3.2c-0.8,0.8-1.6,0.8-2.4,1.6c0.8,0,1.6,0,1.6,0c0,0.8,0,2.4,0.8,3.2h-0.8
						c0,1.6-0.8,2.4-0.8,4c0,0.8,0.8,0.8,0.8,1.6c-0.8,0.8-1.6,1.6-2.4,1.6c0.8,0,2.4-0.8,3.2-0.8c-0.8,1.6-0.8,3.2-1.6,4
						c-0.8,0-1.6,0-1.6,0s-0.8,0.8-1.6,0.8c4,1.6,0,5.6-2.4,4c0.8,0.8,1.6,0.8,3.2,1.6c-0.8,2.4-1.6,4.8-2.4,6.4c0,0,0.8,0,1.6,0
						c-0.8,1.6-0.8,3.2-0.8,4.8c-0.8,0-1.6,0.8-1.6,1.6c0.8,2.4,0.8,4.8-0.8,6.4l0.8,0.8c-0.8,1.6-0.8,3.2,0,4.8
						c-0.8,0.8-0.8,0.8-1.6,1.6c0,2.4,0,4,0,6.4c0,0-0.8-0.8-1.6-0.8c0-0.8,0.8-1.6,0.8-1.6c-1.6,1.6-3.2,3.2-4,4.8
						c0.8,0,1.6-0.8,2.4-0.8c0.8,0.8,0.8,2.4,1.6,3.2c-0.8-0.8-1.6-0.8-1.6-1.6c-0.8,0-1.6,0-1.6,0l-0.8,0.8c1.6,1.6,3.2,2.4,4.8,4
						c-0.8,0-2.4,0-3.2-0.8c0.8,0.8,2.4,2.4,1.6,4c1.6-0.8,3.2-0.8,4.8,0c-1.6,0.8-3.2,2.4-4.8,4c0,0.8,0,1.6,0,2.4
						c0.8,0,1.6-0.8,1.6-0.8c0.8,0.8,1.6,1.6,2.4,2.4c-0.8,0-1.6,0-2.4,0l-0.8,0.8c0.8,1.6,0.8,2.4,1.6,4l-0.8,0.8
						c0,0-0.8-0.8-0.8-1.6c0,0.8,0,2.4,0,3.2h0.8c0,1.6-0.8,2.4-0.8,4c-0.8,0.8-0.8,0.8-1.6,1.6c-0.8,0-1.6,0-2.4,0
						c0,0.8,0.8,0.8,0.8,1.6c-0.8,0.8-1.6,1.6-2.4,2.4c0,0.8,0.8,1.6,1.6,1.6c0.8-0.8,1.6-1.6,2.4-1.6c0,0.8-0.8,1.6-0.8,2.4
						s0,1.6,0.8,2.4c-0.8,0-1.6,0-1.6,0s0.8-0.8,1.6-1.6c0,0-0.8,0-1.6,0c0,0.8-0.8,1.6-0.8,3.2c1.6,0,2.4,0,4,0
						c-0.8,1.6-2.4,2.4-3.2,4c0.8,0,1.6-0.8,2.4-0.8c0.8,2.4,1.6,4,3.2,6.4c-0.8,0-1.6,0.8-1.6,0.8l0.8,0.8c-0.8,0-1.6,0.8-1.6,1.6
						l0.8,0.8c0,0.8-0.8,1.6-0.8,1.6c-0.8,0-1.6,0-2.4,0c0,0.8,0.8,1.6,0.8,2.4c-1.6-0.8-3.2-2.4-4.8-3.2c0.8,0.8,1.6,1.6,2.4,3.2
						c-0.8,0-1.6-0.8-2.4-1.6c-0.8,0.8-1.6,0.8-2.4,1.6c0,0.8,0.8,1.6,0.8,1.6c-0.8,0-1.6-0.8-1.6-1.6c-1.6,0.8-3.2,2.4-4.8,4
						c-4.8-1.6-9.7-4.8-10.5-9.7c-0.8,0-1.6-0.8-1.6-0.8c0-1.6,0-3.2,0-4.8c0,0,0.8,0.8,1.6,1.6c0.8-0.8,1.6-0.8,1.6-1.6
						c-0.8,0-1.6,0-2.4,0l0.8-0.8c-1.6-0.8-2.4-2.4-3.2-4c0.8,0,1.6,0,1.6,0c0.8,0.8,1.6,1.6,3.2,1.6c-0.8-0.8-1.6-1.6-1.6-2.4
						c1.6,0,3.2,1.6,4,1.6c-0.8-0.8-1.6-1.6-2.4-2.4l0.8-0.8c-1.6-1.6-4-2.4-4.8-4.8c0.8,0,1.6,0.8,2.4,0.8c0-0.8-0.8-2.4-0.8-3.2
						c0.8,0,1.6,0,1.6,0c0-0.8,0.8-1.6,1.6-1.6c-0.8-0.8-2.4-1.6-3.2-1.6c0.8,0.8,1.6,1.6,2.4,2.4c-1.6,0-3.2-0.8-4-2.4
						c0.8-0.8,1.6-1.6,2.4-2.4c0-1.6-0.8-2.4-0.8-4c-5.6-3.2-6.4-4-6.4-4.8c1.6,0,2.4,0,4,0c0-0.8,0.8-1.6,0.8-1.6
						c-0.8-0.8-0.8-0.8-1.6-1.6c1.6-1.6,0.8-3.2-0.8-4.8c0.8,0,2.4,0,3.2,0c-0.8-0.8-1.6-0.8-3.2-1.6c0.8-0.8,2.4-1.6,3.2-2.4
						c-1.6,0-3.2,0.8-4,0.8c0,0,0-0.8,0-1.6c2.4-0.8,4.8-1.6,6.4-3.2c-1.6,0-2.4,0.8-3.2,1.6c0,0-0.8-0.8-1.6-0.8
						c0-0.8-0.8-1.6-0.8-2.4c0.8,0,1.6-0.8,2.4-0.8c0.8,0,1.6,0.8,1.6,0.8c-0.8-1.6-1.6-2.4-2.4-3.2c-0.8-1.6-0.8-2.4,0-4
						c-0.8-1.6-0.8-3.2-1.6-4.8l0.8-0.8c0-0.8-0.8-1.6-1.6-1.6c0.8-0.8,1.6-0.8,2.4-1.6c0-1.6,0-2.4,0-4c0,0-0.8,0.8-1.6,0.8
						c0,0-0.8-0.8-0.8-1.6c0.8,0,1.6-0.8,1.6-1.6l-0.8-0.8c0.8,0,1.6-0.8,1.6-0.8c0-0.8,0-1.6,0.8-2.4c-1.6-0.8-2.4-1.6-4-2.4
						c0.8,0,1.6,0.8,2.4,0.8c0.8-0.8,0.8-1.6,1.6-2.4c-0.8,0-2.4,0-3.2,0c0-0.8,0.8-1.6,0.8-1.6c0.8,0,1.6-0.8,2.4-0.8
						c0-0.8,0-1.6,0-1.6c-0.8,0-2.4,0-3.2,0c0.8-0.8,0.8-2.4,2.4-1.6l0.8-0.8c-0.8-0.8-2.4-2.4-3.2-3.2c0.8-1.6,2.4-3.2,4-4.8
						c-0.8,0-1.6,0-1.6,0v-1.6c0.8,0,2.4-0.8,3.2-0.8c-0.8-0.8-2.4-1.6-3.2-2.4c0,0-0.8-0.8-0.8-1.6c0.8-1.6,0.8-4,1.6-5.6
						c-0.8,0-1.6-0.8-1.6-1.6c0.8-0.8,0.8-0.8,1.6-1.6c0-0.8,0-1.6,0-3.2c2.4-0.8,0.8-3.2,0.8-4.8c0-3.2,1.6-5.6,1.6-8.8
						c0.8,0.8,1.6,0.8,1.6,1.6c0-0.8,0-2.4,0-3.2c-0.8,0-1.6,0-2.4,0c0-0.8,0-1.6,0-2.4c0.8,0.8,1.6,1.6,2.4,2.4
						c0.8-0.8,1.6-2.4,1.6-3.2c-0.8-0.8-1.6-1.6-3.2-2.4c0-0.8-0.8-1.6-0.8-2.4c0.8-0.8,0.8-0.8,1.6-1.6c0.8,0,1.6,0,2.4,0
						c-0.8-0.8-0.8-1.6-1.6-2.4c0.8-0.8,1.6-2.4,2.4-3.2c0.8,0.8,1.6,1.6,3.2,2.4C288,160.9,287.2,160.1,287.2,159.3
						c0-0.8,0.8-1.6,1.6-2.4C289.6,158.5,288,158.5,287.2,159.3z M304.9,165.7c-0.8,0.8,0,2.4,0.8,1.6
						C306.5,166.5,305.7,164.9,304.9,165.7z M308.1,185c0,0.8,0.8,1.6,0.8,2.4c1.6,0,2.4-0.8,4-0.8c0,0-0.8-0.8-1.6-1.6
						C310.5,185,309.7,185,308.1,185z M277.5,203.5c0.8,0.8,2.4-0.8,2.4-1.6C279.1,201.1,276.7,201.9,277.5,203.5z M297.6,261.4
						c0.8,0.8,1.6,2.4,2.4,3.2c0.8-0.8,1.6-1.6,2.4-2.4C300.9,262.2,299.2,261.4,297.6,261.4z M298.4,271.9
						c-0.8,0.8-0.8,1.6-0.8,2.4C298.4,275.1,300.1,271.1,298.4,271.9z M275.9,275.1c-0.8,1.6,2.4,2.4,2.4,0.8
						C278.3,275.1,276.7,275.1,275.9,275.1z M297.6,277.5c0,0.8,0.8,2.4,1.6,3.2c0.8-0.8,0.8-2.4,1.6-3.2
						C300.1,277.5,298.4,277.5,297.6,277.5z"/>
				</g>
				<g>
					<path fill="#FFFFFF" d="M287.2,35.4c1.6-1.6,3.2-3.2,4-4c1.6,0.8,3.2,0.8,4,2.4h0.8c1.6,0,1.6-0.8,2.4-0.8c0,0,0.8,0.8,1.6,0.8
						l0.8-0.8c1.6,2.4,4,4,6.4,5.6l-0.8,0.8c0.8,0.8,0.8,1.6,1.6,2.4c0,0.8-0.8,0.8-0.8,1.6c1.6,0.8,2.4,1.6,3.2,3.2
						c-1.6,0.8-1.6,2.4-2.4,4c0,0,0.8-0.8,1.6-0.8c0-0.8,0-1.6,0-2.4c0.8,0.8,0.8,2.4,2.4,3.2c0,0.8,0,1.6,0,2.4c-0.8,0-1.6,0-2.4,0
						c0,0.8,0.8,1.6,0.8,2.4h0.8c0.8,0.8,1.6,1.6,3.2,2.4c-0.8,0-1.6,0.8-2.4,0.8c0.8,0.8,1.6,1.6,2.4,2.4c0,0,0,0.8,0,1.6
						c0,0,0.8,0.8,1.6,0.8l-0.8,0.8c0,0.8,0.8,0.8,0.8,1.6c0,0-0.8,0.8-0.8,1.6c0,0,0.8,0,1.6,0l-0.8,0.8c0,0,0.8,0,1.6,0
						c0,0,0,0.8,0,1.6c0,0-0.8-0.8-1.6-0.8c0,0.8,0.8,1.6,1.6,2.4c-0.8,0.8,0,1.6,0.8,2.4c0,1.6,0,3.2-0.8,4.8c-1.6,0-3.2,1.6-4,2.4
						c0.8,0.8,0.8,0.8,1.6,1.6c-1.6,0.8-4.8,2.4-5.6,0c0,0-0.8,0-1.6,0v0.8c1.6,0,2.4,0.8,2.4,1.6c-3.2-0.8-5.6,0-8.8-0.8
						c0,0-0.8-0.8-0.8-1.6c0,0-0.8,0-0.8,0.8c-0.8-0.8-2.4-0.8-3.2-1.6l0.8-0.8c-2.4-0.8-4-2.4-4.8-4.8c0.8,0.8,1.6,3.2,3.2,3.2
						c0-0.8-0.8-1.6-1.6-2.4c0.8-0.8,0.8-1.6,1.6-1.6c-1.6,0-3.2,0.8-4,0.8c0.8-0.8,1.6-0.8,2.4-1.6c-3.2-2.4-4.8-4.8-6.4-7.2
						c0.8,0,1.6,0,1.6-0.8c-0.8-0.8-1.6-0.8-2.4-1.6c0,0,0-0.8,0-1.6c0,0,0.8-0.8,1.6-0.8l-0.8-0.8c0,0,0.8-0.8,0.8-1.6
						c-0.8,0-1.6,0-2.4,0v-0.8c0.8,0,1.6,0,1.6,0c0-0.8,0-1.6,0-1.6c-0.8,0-1.6,0-1.6,0c0.8-0.8,0.8-2.4-0.8-2.4c0,0,0-0.8,0-1.6
						l-0.8-0.8c0.8-0.8,2.4-2.4,0-2.4c0.8-0.8,0.8-1.6,1.6-2.4l-0.8-0.8c0,0,0.8,0,1.6,0v-0.8c0,0-0.8,0-1.6,0l0.8-0.8
						c-0.8-1.6-0.8-3.2,0-4.8c-3.2-0.8,0-1.6,1.6-3.2C288,37,288,36.2,287.2,35.4z M311.3,61.9c0.8,0,0.8,0,0.8-0.8
						C311.3,60.3,311.3,61.1,311.3,61.9z M312.1,62.7c-0.8,0-1.6,2.4,0,1.6C312.9,63.6,312.9,61.9,312.1,62.7z M307.3,80.4
						c0.8,0,2.4,0,3.2,0c0,0,0.8-0.8,0.8-1.6C310.5,78.8,308.9,79.6,307.3,80.4z"/>
				</g>
			</g>
		</g>
	</g>
</g>
<g id="Footer">
</g>
<g id="Contatti">
</g>
<g id="Pillole">
</g>
<g id="Strumenti">
</g>
<g id="Blog">
</g>
<g id="Obiettivi">
</g>
<g id="COLORI_ROLL-OVER" display="none">
</g>
<g id="Roll">
</g>
</svg>
