<?xml version="1.0" encoding="utf-8"?>
<!-- Generator: Adobe Illustrator 18.1.0, SVG Export Plug-In . SVG Version: 6.00 Build 0)  -->
<svg version="1.1" id="Livello_1" xmlns="http://www.w3.org/2000/svg" xmlns:xlink="http://www.w3.org/1999/xlink" x="0px" y="0px"
	 viewBox="0 0 77.9 28.7" enable-background="new 0 0 77.9 28.7" xml:space="preserve">
<g>
	<g>
		<path fill="#FFFFFF" d="M24.9,2.3c1,1.1,1.5,2.6,1.5,4.7c0,2.2-0.5,3.8-1.5,5c-1,1.1-2.3,1.7-3.8,1.7c-1,0-1.8-0.2-2.5-0.7
			c-0.4-0.3-0.7-0.7-1.1-1.2v6.4h-3.2V1h3.1v1.8c0.4-0.5,0.7-1,1.1-1.3c0.7-0.6,1.6-0.8,2.6-0.8C22.6,0.7,23.9,1.2,24.9,2.3z
			 M22.4,4.6c-0.4-0.7-1.2-1.1-2.1-1.1c-1.2,0-2,0.6-2.4,1.7c-0.2,0.6-0.3,1.3-0.3,2.2c0,1.4,0.4,2.4,1.2,3c0.5,0.3,1,0.5,1.6,0.5
			c0.9,0,1.6-0.3,2.1-1c0.5-0.7,0.7-1.6,0.7-2.8C23.1,6.2,22.8,5.4,22.4,4.6z"/>
	</g>
	<g>
		<path fill="#FFFFFF" d="M28,1.1h3.5v9.3h7v3H28V1.1z"/>
	</g>
	<g>
		<path fill="#FFFFFF" d="M45.5,5.8c0.6-0.1,1-0.2,1.3-0.3c0.5-0.2,0.7-0.5,0.7-0.9c0-0.5-0.2-0.9-0.5-1.1c-0.4-0.2-0.9-0.3-1.6-0.3
			c-0.8,0-1.3,0.2-1.6,0.6c-0.2,0.3-0.4,0.7-0.5,1.1h-3.1c0.1-1.1,0.4-2,0.9-2.7c0.9-1.1,2.3-1.6,4.4-1.6c1.4,0,2.6,0.3,3.6,0.8
			c1.1,0.5,1.6,1.6,1.6,3v5.7c0,0.4,0,0.9,0,1.4c0,0.4,0.1,0.7,0.2,0.9c0.1,0.2,0.3,0.3,0.5,0.4v0.5h-3.5c-0.1-0.3-0.2-0.5-0.2-0.7
			c0-0.2-0.1-0.5-0.1-0.7c-0.5,0.5-1,0.9-1.6,1.2c-0.7,0.4-1.5,0.6-2.4,0.6c-1.1,0-2.1-0.3-2.8-1c-0.7-0.6-1.1-1.5-1.1-2.7
			c0-1.5,0.6-2.6,1.8-3.3c0.6-0.4,1.6-0.6,2.9-0.8L45.5,5.8z M47.5,7.3c-0.2,0.1-0.4,0.2-0.6,0.3c-0.2,0.1-0.5,0.2-0.9,0.2L45.3,8
			c-0.7,0.1-1.2,0.3-1.5,0.4C43.3,8.7,43,9.2,43,9.8c0,0.6,0.2,1,0.5,1.2c0.3,0.2,0.7,0.4,1.1,0.4c0.7,0,1.4-0.2,2-0.6
			c0.6-0.4,0.9-1.2,0.9-2.2V7.3z"/>
	</g>
	<g>
		<path fill="#FFFFFF" d="M60.2,5.4C60.2,5,60,4.5,59.8,4.2c-0.4-0.5-0.9-0.7-1.7-0.7C57,3.4,56.2,4,55.8,5
			c-0.2,0.6-0.3,1.3-0.3,2.3c0,0.9,0.1,1.6,0.3,2.2c0.4,1,1.1,1.5,2.2,1.5c0.8,0,1.3-0.2,1.6-0.6c0.3-0.4,0.5-0.9,0.6-1.6h3.3
			c-0.1,1-0.4,1.9-1.1,2.8c-1,1.4-2.5,2.1-4.5,2.1c-2,0-3.5-0.6-4.4-1.8c-0.9-1.2-1.4-2.7-1.4-4.6c0-2.1,0.5-3.8,1.6-5
			c1-1.2,2.5-1.8,4.3-1.8c1.6,0,2.8,0.3,3.8,1c1,0.7,1.6,1.9,1.8,3.7H60.2z"/>
	</g>
	<g>
		<path fill="#FFFFFF" d="M73.9,1.2c0.9,0.4,1.6,1,2.1,1.8c0.5,0.7,0.8,1.6,1,2.6c0.1,0.6,0.1,1.4,0.1,2.5h-9c0,1.2,0.5,2.1,1.3,2.6
			c0.5,0.3,1.1,0.5,1.8,0.5c0.7,0,1.3-0.2,1.8-0.6c0.3-0.2,0.5-0.5,0.7-0.9h3.3c-0.1,0.7-0.5,1.5-1.2,2.2c-1.1,1.2-2.7,1.8-4.7,1.8
			c-1.6,0-3.1-0.5-4.4-1.5c-1.3-1-1.9-2.7-1.9-5c0-2.1,0.6-3.8,1.7-4.9c1.1-1.1,2.6-1.7,4.4-1.7C72,0.6,73,0.8,73.9,1.2z M69,4
			c-0.5,0.5-0.7,1.1-0.9,1.9h5.6c-0.1-0.9-0.3-1.5-0.9-2c-0.5-0.4-1.2-0.7-1.9-0.7C70.1,3.3,69.5,3.5,69,4z"/>
	</g>
</g>
<g>
	<g>
		<path fill="#FFFFFF" d="M0.4,13.4l4.2-6.3L0.6,1h4l2.1,3.6l2-3.6h3.9l-4.1,6l4.2,6.3h-4L6.5,9.7l-2.2,3.7H0.4z"/>
	</g>
</g>
<g>
	<path fill="#FFFFFF" d="M14.9,27.1v-4.7h1.6c0.1,0,0.3,0,0.4,0c0.1,0,0.2,0,0.4,0c0.1,0,0.2,0.1,0.4,0.1c0.1,0,0.2,0.1,0.3,0.2
		c0.2,0.1,0.3,0.3,0.4,0.4c0.1,0.2,0.2,0.3,0.2,0.5c0.1,0.2,0.1,0.4,0.1,0.5c0,0.2,0,0.4,0,0.5c0,0.2,0,0.3,0,0.5
		c0,0.2-0.1,0.3-0.1,0.5c0,0.2-0.1,0.3-0.2,0.4c-0.1,0.1-0.2,0.3-0.3,0.4c-0.1,0.1-0.2,0.2-0.4,0.3c-0.1,0.1-0.3,0.1-0.4,0.2
		c-0.1,0-0.3,0.1-0.4,0.1c-0.2,0-0.3,0-0.5,0H14.9z M15.4,26.8h1.1c0.2,0,0.4,0,0.6,0c0.2,0,0.4-0.1,0.5-0.2
		c0.2-0.1,0.3-0.2,0.4-0.3c0.1-0.1,0.2-0.3,0.2-0.4c0.1-0.2,0.1-0.3,0.1-0.5s0-0.3,0-0.5c0-0.2,0-0.3,0-0.5c0-0.2-0.1-0.3-0.1-0.5
		c-0.1-0.2-0.1-0.3-0.2-0.4c-0.1-0.1-0.2-0.2-0.4-0.3c-0.1-0.1-0.3-0.1-0.5-0.1c-0.2,0-0.4,0-0.6,0h-1.1V26.8z"/>
	<path fill="#FFFFFF" d="M19.8,27.1v-4.7h0.4v4.7H19.8z"/>
	<path fill="#FFFFFF" d="M23.4,25.1v-0.4h2v2.4H25v-0.8c-0.1,0.1-0.2,0.3-0.3,0.4c-0.1,0.1-0.2,0.2-0.4,0.3
		c-0.1,0.1-0.3,0.1-0.5,0.2c-0.2,0-0.4,0.1-0.6,0.1c-0.3,0-0.6-0.1-0.8-0.2c-0.3-0.1-0.5-0.3-0.6-0.5c-0.2-0.2-0.3-0.5-0.4-0.8
		c-0.1-0.3-0.2-0.7-0.2-1.1c0-0.3,0-0.7,0.1-1c0.1-0.3,0.2-0.6,0.4-0.8c0.2-0.2,0.4-0.4,0.7-0.5c0.3-0.1,0.6-0.2,1-0.2
		c0.2,0,0.5,0,0.7,0.1c0.2,0.1,0.4,0.2,0.6,0.3c0.2,0.1,0.3,0.3,0.4,0.5c0.1,0.2,0.2,0.4,0.3,0.7h-0.5c0-0.2-0.1-0.3-0.2-0.5
		c-0.1-0.1-0.2-0.3-0.3-0.3c-0.1-0.1-0.3-0.2-0.4-0.2c-0.2,0-0.3-0.1-0.5-0.1c-0.3,0-0.6,0.1-0.8,0.2c-0.2,0.1-0.4,0.3-0.5,0.5
		s-0.2,0.4-0.3,0.7c-0.1,0.3-0.1,0.6-0.1,0.9c0,0.3,0,0.5,0.1,0.7c0.1,0.2,0.2,0.4,0.3,0.6c0.1,0.2,0.3,0.3,0.5,0.4
		c0.2,0.1,0.4,0.2,0.7,0.2c0.1,0,0.3,0,0.4,0c0.1,0,0.3-0.1,0.4-0.1c0.1-0.1,0.2-0.1,0.4-0.3s0.2-0.2,0.3-0.4
		c0.1-0.1,0.1-0.3,0.2-0.5c0-0.2,0-0.3,0-0.5H23.4z"/>
	<path fill="#FFFFFF" d="M26.6,27.1v-4.7h0.4v4.7H26.6z"/>
	<path fill="#FFFFFF" d="M27.8,22.5h3.4v0.4h-1.5v4.3h-0.4v-4.3h-1.5V22.5z"/>
	<path fill="#FFFFFF" d="M31.4,27.1l1.8-4.7h0.5l1.8,4.7h-0.5l-0.5-1.5h-2.1l-0.6,1.5H31.4z M32.6,25.3h1.8l-0.9-2.5L32.6,25.3z"/>
	<path fill="#FFFFFF" d="M36.2,27.1v-4.7h0.4v4.3h2.5v0.4H36.2z"/>
	<path fill="#FFFFFF" d="M41.2,27.1l1.8-4.7h0.5l1.8,4.7h-0.5l-0.5-1.5h-2.1l-0.6,1.5H41.2z M42.4,25.3h1.8l-0.9-2.5L42.4,25.3z"/>
	<path fill="#FFFFFF" d="M47.9,25.1v-0.4h2v2.4h-0.4v-0.8c-0.1,0.1-0.2,0.3-0.3,0.4c-0.1,0.1-0.2,0.2-0.4,0.3
		c-0.1,0.1-0.3,0.1-0.5,0.2c-0.2,0-0.4,0.1-0.6,0.1c-0.3,0-0.6-0.1-0.8-0.2c-0.3-0.1-0.5-0.3-0.6-0.5c-0.2-0.2-0.3-0.5-0.4-0.8
		c-0.1-0.3-0.2-0.7-0.2-1.1c0-0.3,0-0.7,0.1-1c0.1-0.3,0.2-0.6,0.4-0.8c0.2-0.2,0.4-0.4,0.7-0.5c0.3-0.1,0.6-0.2,1-0.2
		c0.2,0,0.5,0,0.7,0.1c0.2,0.1,0.4,0.2,0.6,0.3c0.2,0.1,0.3,0.3,0.4,0.5c0.1,0.2,0.2,0.4,0.3,0.7h-0.5c0-0.2-0.1-0.3-0.2-0.5
		c-0.1-0.1-0.2-0.3-0.3-0.3c-0.1-0.1-0.3-0.2-0.4-0.2c-0.2,0-0.3-0.1-0.5-0.1c-0.3,0-0.6,0.1-0.8,0.2c-0.2,0.1-0.4,0.3-0.5,0.5
		s-0.2,0.4-0.3,0.7c-0.1,0.3-0.1,0.6-0.1,0.9c0,0.3,0,0.5,0.1,0.7s0.2,0.4,0.3,0.6c0.1,0.2,0.3,0.3,0.5,0.4c0.2,0.1,0.4,0.2,0.7,0.2
		c0.1,0,0.3,0,0.4,0c0.1,0,0.3-0.1,0.4-0.1c0.1-0.1,0.2-0.1,0.4-0.3c0.1-0.1,0.2-0.2,0.3-0.4c0.1-0.1,0.1-0.3,0.2-0.5
		c0-0.2,0-0.3,0-0.5H47.9z"/>
	<path fill="#FFFFFF" d="M51,27.1v-4.7h3.1v0.4h-2.7v1.7h2.4v0.4h-2.4v1.9h2.7v0.4H51z"/>
	<path fill="#FFFFFF" d="M55.4,23.1L55.4,23.1l0,4.1H55v-4.7h0.5l2.7,4.1h0v-4.1h0.4v4.7h-0.5L55.4,23.1z"/>
	<path fill="#FFFFFF" d="M63,23.8c-0.1-0.4-0.3-0.7-0.5-0.9c-0.2-0.2-0.6-0.3-1-0.3c-0.3,0-0.5,0.1-0.7,0.2
		c-0.2,0.1-0.4,0.3-0.5,0.5c-0.1,0.2-0.2,0.4-0.3,0.7c-0.1,0.2-0.1,0.5-0.1,0.8c0,0.3,0,0.5,0.1,0.8c0.1,0.3,0.1,0.5,0.3,0.7
		s0.3,0.4,0.5,0.5c0.2,0.1,0.5,0.2,0.8,0.2c0.2,0,0.4,0,0.5-0.1c0.2-0.1,0.3-0.2,0.4-0.3c0.1-0.1,0.2-0.2,0.3-0.4
		c0.1-0.2,0.1-0.3,0.2-0.5h0.5c-0.1,0.2-0.1,0.4-0.2,0.6c-0.1,0.2-0.2,0.4-0.4,0.5c-0.2,0.2-0.4,0.3-0.6,0.4
		c-0.2,0.1-0.5,0.1-0.8,0.1c-0.4,0-0.7-0.1-0.9-0.2c-0.3-0.1-0.5-0.3-0.6-0.5c-0.2-0.2-0.3-0.5-0.4-0.8c-0.1-0.3-0.1-0.6-0.1-0.9
		c0-0.4,0.1-0.8,0.2-1.1s0.3-0.6,0.5-0.8c0.2-0.2,0.4-0.3,0.7-0.4c0.3-0.1,0.6-0.1,0.9-0.1c0.2,0,0.5,0,0.7,0.1s0.4,0.2,0.5,0.3
		c0.2,0.1,0.3,0.3,0.4,0.5c0.1,0.2,0.2,0.4,0.2,0.6H63z"/>
	<path fill="#FFFFFF" d="M65.8,24.7l1.4-2.3h0.5L66,25.1v2h-0.4v-2l-1.7-2.7h0.5L65.8,24.7z"/>
</g>
</svg>
